<svg width="212" height="176" viewBox="0 0 212 176" fill="none" xmlns="http://www.w3.org/2000/svg">
<g filter="url(#filter0_dii_2634_20474)">
<path d="M124 36H126V92H124V90C124 86.6863 121.314 84 118 84H68C63.5817 84 60 80.4183 60 76V52C60 47.5817 63.5817 44 68 44H118C121.314 44 124 41.3137 124 38V36Z" fill="#0A0B0E"/>
<path d="M124 36H126V92H124V90C124 86.6863 121.314 84 118 84H68C63.5817 84 60 80.4183 60 76V52C60 47.5817 63.5817 44 68 44H118C121.314 44 124 41.3137 124 38V36Z" fill="url(#paint0_radial_2634_20474)" fill-opacity="0.4"/>
<path d="M134 44C132.895 44 132 44.8954 132 46V82C132 83.1046 132.895 84 134 84H144C148.418 84 152 80.4183 152 76V52C152 47.5817 148.418 44 144 44H134Z" fill="#0A0B0E"/>
<path d="M134 44C132.895 44 132 44.8954 132 46V82C132 83.1046 132.895 84 134 84H144C148.418 84 152 80.4183 152 76V52C152 47.5817 148.418 44 144 44H134Z" fill="url(#paint1_radial_2634_20474)" fill-opacity="0.4"/>
</g>
<path d="M78.7826 58.7826C78.7826 58.3504 78.4322 58 78 58C77.5678 58 77.2174 58.3504 77.2174 58.7826V62.1112L74.8636 59.7575C74.558 59.4518 74.0625 59.4518 73.7568 59.7575C73.4512 60.0631 73.4512 60.5586 73.7568 60.8642L76.11 63.2174H72.7826C72.3504 63.2174 72 63.5678 72 64C72 64.4322 72.3504 64.7826 72.7826 64.7826H76.1102L73.757 67.1359C73.4513 67.4415 73.4513 67.937 73.757 68.2426C74.0626 68.5483 74.5581 68.5483 74.8637 68.2426L77.2174 65.889V69.2174C77.2174 69.6496 77.5678 70 78 70C78.4322 70 78.7826 69.6496 78.7826 69.2174V65.89L81.1354 68.2428C81.441 68.5484 81.9365 68.5484 82.2421 68.2428C82.5478 67.9371 82.5478 67.4416 82.2421 67.136L79.8888 64.7826H83.2174C83.6496 64.7826 84 64.4322 84 64C84 63.5678 83.6496 63.2174 83.2174 63.2174H79.889L82.2422 60.8641C82.5479 60.5585 82.5479 60.063 82.2422 59.7574C81.9366 59.4517 81.4411 59.4517 81.1355 59.7574L78.7826 62.1102V58.7826Z" fill="#D23403"/>
<path d="M94.7826 58.7826C94.7826 58.3504 94.4322 58 94 58C93.5678 58 93.2174 58.3504 93.2174 58.7826V62.1112L90.8636 59.7575C90.558 59.4518 90.0625 59.4518 89.7568 59.7575C89.4512 60.0631 89.4512 60.5586 89.7568 60.8642L92.11 63.2174H88.7826C88.3504 63.2174 88 63.5678 88 64C88 64.4322 88.3504 64.7826 88.7826 64.7826H92.1102L89.757 67.1359C89.4513 67.4415 89.4513 67.937 89.757 68.2426C90.0626 68.5483 90.5581 68.5483 90.8637 68.2426L93.2174 65.889V69.2174C93.2174 69.6496 93.5678 70 94 70C94.4322 70 94.7826 69.6496 94.7826 69.2174V65.89L97.1354 68.2428C97.441 68.5484 97.9365 68.5484 98.2421 68.2428C98.5478 67.9371 98.5478 67.4416 98.2421 67.136L95.8888 64.7826H99.2174C99.6496 64.7826 100 64.4322 100 64C100 63.5678 99.6496 63.2174 99.2174 63.2174H95.889L98.2422 60.8641C98.5479 60.5585 98.5479 60.063 98.2422 59.7574C97.9366 59.4517 97.4411 59.4517 97.1355 59.7574L94.7826 62.1102V58.7826Z" fill="#D23403"/>
<path d="M110.783 58.7826C110.783 58.3504 110.432 58 110 58C109.568 58 109.217 58.3504 109.217 58.7826V62.1112L106.864 59.7575C106.558 59.4518 106.062 59.4518 105.757 59.7575C105.451 60.0631 105.451 60.5586 105.757 60.8642L108.11 63.2174H104.783C104.35 63.2174 104 63.5678 104 64C104 64.4322 104.35 64.7826 104.783 64.7826H108.11L105.757 67.1359C105.451 67.4415 105.451 67.937 105.757 68.2426C106.063 68.5483 106.558 68.5483 106.864 68.2426L109.217 65.889V69.2174C109.217 69.6496 109.568 70 110 70C110.432 70 110.783 69.6496 110.783 69.2174V65.89L113.135 68.2428C113.441 68.5484 113.937 68.5484 114.242 68.2428C114.548 67.9371 114.548 67.4416 114.242 67.136L111.889 64.7826H115.217C115.65 64.7826 116 64.4322 116 64C116 63.5678 115.65 63.2174 115.217 63.2174H111.889L114.242 60.8641C114.548 60.5585 114.548 60.063 114.242 59.7574C113.937 59.4517 113.441 59.4517 113.135 59.7574L110.783 62.1102V58.7826Z" fill="#D23403"/>
<rect x="124" y="28" width="4" height="72" rx="2" fill="#D23403"/>
<defs>
<filter id="filter0_dii_2634_20474" x="0" y="0" width="212" height="176" filterUnits="userSpaceOnUse" color-interpolation-filters="sRGB">
<feFlood flood-opacity="0" result="BackgroundImageFix"/>
<feColorMatrix in="SourceAlpha" type="matrix" values="0 0 0 0 0 0 0 0 0 0 0 0 0 0 0 0 0 0 127 0" result="hardAlpha"/>
<feOffset dy="24"/>
<feGaussianBlur stdDeviation="30"/>
<feComposite in2="hardAlpha" operator="out"/>
<feColorMatrix type="matrix" values="0 0 0 0 0 0 0 0 0 0 0 0 0 0 0 0 0 0 0.4 0"/>
<feBlend mode="normal" in2="BackgroundImageFix" result="effect1_dropShadow_2634_20474"/>
<feBlend mode="normal" in="SourceGraphic" in2="effect1_dropShadow_2634_20474" result="shape"/>
<feColorMatrix in="SourceAlpha" type="matrix" values="0 0 0 0 0 0 0 0 0 0 0 0 0 0 0 0 0 0 127 0" result="hardAlpha"/>
<feOffset/>
<feGaussianBlur stdDeviation="4"/>
<feComposite in2="hardAlpha" operator="arithmetic" k2="-1" k3="1"/>
<feColorMatrix type="matrix" values="0 0 0 0 1 0 0 0 0 1 0 0 0 0 1 0 0 0 1 0"/>
<feBlend mode="overlay" in2="shape" result="effect2_innerShadow_2634_20474"/>
<feColorMatrix in="SourceAlpha" type="matrix" values="0 0 0 0 0 0 0 0 0 0 0 0 0 0 0 0 0 0 127 0" result="hardAlpha"/>
<feOffset/>
<feGaussianBlur stdDeviation="2"/>
<feComposite in2="hardAlpha" operator="arithmetic" k2="-1" k3="1"/>
<feColorMatrix type="matrix" values="0 0 0 0 1 0 0 0 0 1 0 0 0 0 1 0 0 0 1 0"/>
<feBlend mode="overlay" in2="effect2_innerShadow_2634_20474" result="effect3_innerShadow_2634_20474"/>
</filter>
<radialGradient id="paint0_radial_2634_20474" cx="0" cy="0" r="1" gradientUnits="userSpaceOnUse" gradientTransform="translate(133.5 51.5) rotate(150.001) scale(56.0022 56.0022)">
<stop stop-color="#383C4E"/>
<stop offset="1" stop-color="#0D0E12"/>
</radialGradient>
<radialGradient id="paint1_radial_2634_20474" cx="0" cy="0" r="1" gradientUnits="userSpaceOnUse" gradientTransform="translate(133.5 51.5) rotate(150.001) scale(56.0022 56.0022)">
<stop stop-color="#383C4E"/>
<stop offset="1" stop-color="#0D0E12"/>
</radialGradient>
</defs>
</svg>
