<svg width="18" height="18" viewBox="0 0 18 18" fill="none" xmlns="http://www.w3.org/2000/svg">
<g id="QR">
<path d="M5 3H3V5H5V3Z" fill="white"/>
<path fill-rule="evenodd" clip-rule="evenodd" d="M2 0C0.89543 0 0 0.895431 0 2V6C0 7.10457 0.895431 8 2 8H6C7.10457 8 8 7.10457 8 6V2C8 0.89543 7.10457 0 6 0H2ZM2 2H6V6H2V2Z" fill="white"/>
<path d="M5 13H3V15H5V13Z" fill="white"/>
<path fill-rule="evenodd" clip-rule="evenodd" d="M0 12C0 10.8954 0.89543 10 2 10H6C7.10457 10 8 10.8954 8 12V16C8 17.1046 7.10457 18 6 18H2C0.895431 18 0 17.1046 0 16V12ZM6 12H2V16H6V12Z" fill="white"/>
<path d="M10 11C10 10.4477 10.4477 10 11 10H13C13.5523 10 14 10.4477 14 11C14 11.5523 13.5523 12 13 12H11C10.4477 12 10 11.5523 10 11Z" fill="white"/>
<path d="M16 10C15.4477 10 15 10.4477 15 11C15 11.5523 15.4477 12 16 12H17C17.5523 12 18 11.5523 18 11C18 10.4477 17.5523 10 17 10H16Z" fill="white"/>
<path d="M16 17C16 16.4477 16.4477 16 17 16C17.5523 16 18 16.4477 18 17C18 17.5523 17.5523 18 17 18C16.4477 18 16 17.5523 16 17Z" fill="white"/>
<path d="M14 16C13.4477 16 13 16.4477 13 17C13 17.5523 13.4477 18 14 18C14.5523 18 15 17.5523 15 17C15 16.4477 14.5523 16 14 16Z" fill="white"/>
<path d="M13 14C13 13.4477 13.4477 13 14 13H17C17.5523 13 18 13.4477 18 14C18 14.5523 17.5523 15 17 15H14C13.4477 15 13 14.5523 13 14Z" fill="white"/>
<path d="M11 13C10.4477 13 10 13.4477 10 14V17C10 17.5523 10.4477 18 11 18C11.5523 18 12 17.5523 12 17V14C12 13.4477 11.5523 13 11 13Z" fill="white"/>
<path d="M15 3H13V5H15V3Z" fill="white"/>
<path fill-rule="evenodd" clip-rule="evenodd" d="M10 2C10 0.895431 10.8954 0 12 0H16C17.1046 0 18 0.89543 18 2V6C18 7.10457 17.1046 8 16 8H12C10.8954 8 10 7.10457 10 6V2ZM16 2H12V6H16V2Z" fill="white"/>
</g>
</svg>
