<svg width="24" height="24" viewBox="0 0 24 24" fill="none" xmlns="http://www.w3.org/2000/svg">
<g id="Icon">
<g id="Union">
<path fill-rule="evenodd" clip-rule="evenodd" d="M12 9C10.3431 9 9 10.3431 9 12C9 13.6569 10.3431 15 12 15C13.6569 15 15 13.6569 15 12C15 10.3431 13.6569 9 12 9ZM11 12C11 11.4477 11.4477 11 12 11C12.5523 11 13 11.4477 13 12C13 12.5523 12.5523 13 12 13C11.4477 13 11 12.5523 11 12Z" fill="white"/>
<path fill-rule="evenodd" clip-rule="evenodd" d="M10.5 2C9.99045 2 9.56239 2.38314 9.50612 2.88957L9.23544 5.32566L7.3215 3.79451C6.92361 3.47619 6.35001 3.50796 5.9897 3.86827L3.86838 5.98959C3.50808 6.34989 3.47631 6.9235 3.79462 7.32139L5.32584 9.23542L2.88957 9.50612C2.38314 9.56239 2 9.99045 2 10.5V13.5C2 14.0095 2.38314 14.4376 2.88957 14.4939L5.32611 14.7646L3.795 16.6785C3.47668 17.0764 3.50845 17.65 3.86876 18.0103L5.99008 20.1316C6.35038 20.4919 6.92399 20.5237 7.32188 20.2054L9.23546 18.6745L9.50612 21.1104C9.56239 21.6169 9.99045 22 10.5 22H13.5C14.0095 22 14.4376 21.6169 14.4939 21.1104L14.7646 18.6742L16.6787 20.2055C17.0766 20.5238 17.6502 20.492 18.0105 20.1317L20.1318 18.0104C20.4921 17.6501 20.5239 17.0765 20.2056 16.6786L18.6744 14.7646L21.1104 14.4939C21.6169 14.4376 22 14.0095 22 13.5V10.5C22 9.99045 21.6169 9.56239 21.1104 9.50612L18.6746 9.23547L20.206 7.32129C20.5243 6.9234 20.4925 6.34979 20.1322 5.98949L18.0109 3.86816C17.6506 3.50786 17.077 3.47609 16.6791 3.7944L14.7646 5.326L14.4939 2.88957C14.4376 2.38314 14.0095 2 13.5 2H10.5ZM11.1277 6.40633L11.395 4H12.605L12.8723 6.40633C12.9156 6.79607 13.1827 7.12452 13.5554 7.24639C13.7993 7.32611 14.0349 7.42413 14.2608 7.53888C14.6106 7.71658 15.032 7.6733 15.3384 7.42819L17.2296 5.91527L18.0851 6.77081L16.5721 8.6621C16.327 8.96845 16.2837 9.38982 16.4613 9.73961C16.576 9.96538 16.6739 10.2009 16.7536 10.4446C16.8755 10.8173 17.2039 11.0844 17.5937 11.1277L20 11.395V12.605L17.5937 12.8723C17.2039 12.9156 16.8755 13.1827 16.7536 13.5554C16.6739 13.7992 16.5759 14.0348 16.4612 14.2606C16.2836 14.6104 16.3269 15.0318 16.572 15.3381L18.0847 17.2291L17.2292 18.0846L15.3383 16.5719C15.0319 16.3268 14.6105 16.2835 14.2607 16.4612C14.0348 16.5759 13.7992 16.6739 13.5554 16.7536C13.1827 16.8755 12.9156 17.2039 12.8723 17.5937L12.605 20H11.395L11.1277 17.5937C11.0844 17.2039 10.8173 16.8755 10.4446 16.7536C10.2009 16.6739 9.96532 16.576 9.73954 16.4613C9.38974 16.2836 8.96837 16.3269 8.66201 16.572L6.7714 18.0845L5.91586 17.229L7.42824 15.3385C7.67335 15.0321 7.71663 14.6107 7.53892 14.2609C7.42415 14.035 7.32612 13.7993 7.24639 13.5554C7.12452 13.1827 6.79607 12.9156 6.40633 12.8723L4 12.605V11.395L6.40633 11.1277C6.79607 11.0844 7.12452 10.8173 7.24639 10.4446C7.3261 10.2008 7.4241 9.96515 7.53883 9.73929C7.71652 9.38948 7.67322 8.96809 7.42813 8.66171L5.91549 6.77091L6.77102 5.91537L8.66187 7.42805C8.96823 7.67314 9.38962 7.71644 9.73942 7.53876C9.96524 7.42406 10.2008 7.32608 10.4446 7.24639C10.8173 7.12452 11.0844 6.79607 11.1277 6.40633Z" fill="white"/>
</g>
</g>
</svg>
