<svg width="24" height="24" viewBox="0 0 24 24" fill="none" xmlns="http://www.w3.org/2000/svg">
<path d="M21.7003 5.96725L19.8781 6.57494C19.8121 6.59506 19.7517 6.63137 19.7031 6.68037C19.6541 6.72894 19.6178 6.78932 19.5977 6.85538L18.9436 8.67844C18.913 8.77206 18.8535 8.85344 18.7739 8.91119C18.6943 8.96894 18.5984 9 18.5 9C18.4016 9 18.3057 8.96894 18.2261 8.91119C18.1465 8.85344 18.087 8.77206 18.0564 8.67844L17.4023 6.85538C17.3822 6.78932 17.3459 6.72894 17.2969 6.68037C17.2483 6.63137 17.1879 6.59506 17.1219 6.57494L15.2997 5.96725C15.2104 5.92656 15.1348 5.8605 15.0814 5.77781C15.0284 5.69469 15 5.59844 15 5.5C15 5.40156 15.0284 5.30532 15.0814 5.22219C15.1348 5.1395 15.2104 5.07344 15.2997 5.03275L17.1219 4.42506C17.2461 4.36862 17.3459 4.26887 17.4023 4.14462L18.0564 2.32156C18.087 2.22794 18.1465 2.14656 18.2261 2.08881C18.3057 2.03106 18.4016 2 18.5 2C18.5984 2 18.6943 2.03106 18.7739 2.08881C18.8535 2.14656 18.913 2.22794 18.9436 2.32156L19.5977 4.14462C19.6541 4.26887 19.7539 4.36862 19.8781 4.42506L21.7003 5.03275C21.7896 5.07344 21.8652 5.1395 21.9186 5.22219C21.9716 5.30532 22 5.40156 22 5.5C22 5.59844 21.9716 5.69469 21.9186 5.77781C21.8652 5.8605 21.7896 5.92656 21.7003 5.96725Z" fill="#2D3242"/>
<path d="M18.2722 14.6347L13.8469 16.1106C13.6864 16.1594 13.5398 16.2476 13.4219 16.3666C13.3029 16.4846 13.2147 16.6312 13.1658 16.7916L11.5774 21.2191C11.503 21.4464 11.3585 21.6441 11.1651 21.7843C10.9718 21.9246 10.7391 22 10.5 22C10.2609 22 10.0282 21.9246 9.83487 21.7843C9.64149 21.6441 9.49699 21.4464 9.42262 21.2191L7.83418 16.7916C7.78531 16.6312 7.69712 16.4846 7.57812 16.3666C7.46019 16.2476 7.31357 16.1594 7.15313 16.1106L2.72781 14.6347C2.51106 14.5359 2.32725 14.3755 2.19763 14.1747C2.06907 13.9728 2 13.7391 2 13.5C2 13.2609 2.06907 13.0272 2.19763 12.8253C2.32725 12.6245 2.51106 12.4641 2.72781 12.3653L7.15313 10.8894C7.45488 10.7524 7.69712 10.5101 7.83418 10.2084L9.42262 5.78094C9.49699 5.55356 9.64149 5.35594 9.83487 5.21569C10.0282 5.07544 10.2609 5 10.5 5C10.7391 5 10.9718 5.07544 11.1651 5.21569C11.3585 5.35594 11.503 5.55356 11.5774 5.78094L13.1658 10.2084C13.3029 10.5101 13.5451 10.7524 13.8469 10.8894L18.2722 12.3653C18.4889 12.4641 18.6727 12.6245 18.8024 12.8253C18.9309 13.0272 19 13.2609 19 13.5C19 13.7391 18.9309 13.9728 18.8024 14.1747C18.6727 14.3755 18.4889 14.5359 18.2722 14.6347Z" fill="#2D3242"/>
</svg>
