<svg width="18" height="18" viewBox="0 0 18 18" fill="none" xmlns="http://www.w3.org/2000/svg">
<g id="Frame 2233">
<path id="Vector" d="M16.5464 8.2959L3.12629 2.07463C2.99117 2.01166 2.84066 1.98781 2.69231 2.00586C2.54395 2.02392 2.40387 2.08314 2.28837 2.17663C2.17287 2.27011 2.08672 2.394 2.03996 2.53387C1.9932 2.67373 1.98776 2.82381 2.02427 2.96661L3.55495 8.99968L2.02427 15.0328C1.98742 15.1756 1.99262 15.3258 2.03927 15.4659C2.08592 15.6059 2.17209 15.73 2.28769 15.8236C2.40329 15.9171 2.54355 15.9763 2.69206 15.9942C2.84057 16.0122 2.99119 15.9881 3.12629 15.9247L16.5464 9.70346C16.682 9.64066 16.7967 9.54113 16.877 9.41651C16.9573 9.29188 17 9.14731 17 8.99968C17 8.85206 16.9573 8.70749 16.877 8.58286C16.7967 8.45823 16.682 8.3587 16.5464 8.2959ZM3.95913 13.8188L4.62145 11.2082L9.10535 8.99968L4.62145 6.79113L3.95913 4.18053L14.3558 8.99968L3.95913 13.8188Z" fill="#D23403"/>
</g>
</svg>
