<svg width="18" height="18" viewBox="0 0 18 18" fill="none" xmlns="http://www.w3.org/2000/svg">
<g id="Frame 2233">
<g id="Union">
<path d="M9 2C7.34315 2 6 3.34315 6 5V9C6 10.6569 7.34315 12 9 12C10.6569 12 12 10.6569 12 9V5C12 3.34315 10.6569 2 9 2Z" fill="#D23403"/>
<path d="M4 7.25C4.41421 7.25 4.75 7.58579 4.75 8V9C4.75 11.3472 6.65279 13.25 9 13.25C11.3472 13.25 13.25 11.3472 13.25 9V8C13.25 7.58579 13.5858 7.25 14 7.25C14.4142 7.25 14.75 7.58579 14.75 8V9C14.75 11.9214 12.5713 14.334 9.75 14.7015V17C9.75 17.4142 9.41421 17.75 9 17.75C8.58579 17.75 8.25 17.4142 8.25 17V14.7015C5.42873 14.334 3.25 11.9214 3.25 9V8C3.25 7.58579 3.58579 7.25 4 7.25Z" fill="#D23403"/>
</g>
</g>
</svg>
