<svg width="24" height="24" viewBox="0 0 24 24" fill="none" xmlns="http://www.w3.org/2000/svg">
<path d="M21 11C20.1833 11.4743 19.7522 12.7147 19.3174 13.4967C18.7847 14.4549 18.2466 15.4228 16.9875 15.8582C15.9619 16.2128 15.1343 15.5375 14.3201 14.8731C13.9044 14.5339 13.4922 14.1976 13.059 14.0027C11.8942 13.4782 10.6653 13.646 9.69845 14.3593C9.33454 14.6279 9.00768 14.9737 8.7357 15.389C8.63739 15.5389 8.54455 15.6925 8.45227 15.8452C8.0906 16.4436 7.73751 17.0278 7.09727 17.3188C6.74594 17.4783 6.37155 17.5379 5.99686 17.5974C5.60816 17.6592 5.21914 17.7211 4.85519 17.8948C4.19186 18.2114 3.57175 18.7006 3.3224 19.4448C3 20.4066 3 21.0001 3 21.0001H21V11Z" fill="#2D3242" fill-opacity="0.4"/>
<path d="M20.9999 11C20.1832 11.4743 19.752 12.7147 19.3173 13.4967C18.7846 14.4549 18.2465 15.4228 16.9874 15.8582C15.9618 16.2128 15.1341 15.5375 14.3199 14.8731C13.9043 14.5339 13.4921 14.1976 13.0589 14.0027C11.8941 13.4782 10.6652 13.646 9.69831 14.3593C9.33441 14.6279 9.00755 14.9737 8.73556 15.389C8.63725 15.5389 8.54441 15.6925 8.45213 15.8452C8.09047 16.4436 7.73738 17.0278 7.09713 17.3188C6.7458 17.4783 6.37141 17.5379 5.99672 17.5974C5.60803 17.6592 5.219 17.7211 4.85505 17.8948C4.19173 18.2114 3.57161 18.7006 3.32227 19.4448" stroke="#2D3242" stroke-width="2"/>
<path d="M5 4C4.44772 4 4 4.44772 4 5V19C4 19.5523 4.44772 20 5 20H19C19.5523 20 20 19.5523 20 19V11C20 10.4477 20.4477 10 21 10C21.5523 10 22 10.4477 22 11V19C22 20.6569 20.6569 22 19 22H5C3.34315 22 2 20.6569 2 19V5C2 3.34315 3.34315 2 5 2H13C13.5523 2 14 2.44772 14 3C14 3.55228 13.5523 4 13 4H5Z" fill="#2D3242"/>
<path d="M16 3C16 2.44772 16.4477 2 17 2H20C21.1046 2 22 2.89543 22 4V7C22 7.55228 21.5523 8 21 8C20.4477 8 20 7.55228 20 7V5.41421L15.7071 9.70711C15.3166 10.0976 14.6834 10.0976 14.2929 9.70711C13.9024 9.31658 13.9024 8.68342 14.2929 8.29289L18.5858 4H17C16.4477 4 16 3.55228 16 3Z" fill="#2D3242"/>
</svg>
