<svg width="24" height="24" viewBox="0 0 24 24" fill="none" xmlns="http://www.w3.org/2000/svg">
<path fill-rule="evenodd" clip-rule="evenodd" d="M5 3C3.34315 3 2 4.34315 2 6V18C2 19.6569 3.34315 21 5 21H19C20.6569 21 22 19.6569 22 18V6C22 4.34315 20.6569 3 19 3H5ZM20 9.17071V9C20 8.44772 19.5523 8 19 8H5C4.44772 8 4 8.44772 4 9V9.17071C4.31278 9.06015 4.64936 9 5 9H8C9.15251 9 9.85628 9.92379 10.1093 10.6547C10.3809 11.4391 11.1262 12 12 12C12.8738 12 13.6191 11.4391 13.8907 10.6547C14.1437 9.92379 14.8475 9 16 9H19C19.3506 9 19.6872 9.06015 20 9.17071ZM4 12V18C4 18.5523 4.44772 19 5 19H19C19.5523 19 20 18.5523 20 18V12C20 11.4477 19.5523 11 19 11H16.0027C15.9952 11.0026 15.9774 11.0114 15.9489 11.0372C15.8901 11.0903 15.8232 11.186 15.7806 11.3091C15.2388 12.874 13.7522 14 12 14C10.2478 14 8.76121 12.874 8.2194 11.3091C8.1768 11.186 8.10987 11.0903 8.05111 11.0372C8.02257 11.0114 8.00484 11.0026 7.99732 11H5C4.44772 11 4 11.4477 4 12ZM20 6.17071V6C20 5.44772 19.5523 5 19 5H5C4.44772 5 4 5.44772 4 6V6.17071C4.31278 6.06015 4.64936 6 5 6H19C19.3506 6 19.6872 6.06015 20 6.17071Z" fill="#D23403"/>
</svg>
