<svg width="24" height="24" viewBox="0 0 24 24" fill="none" xmlns="http://www.w3.org/2000/svg">
<path d="M5 4C3.34315 4 2 5.34315 2 7V15C2 16.6569 3.34315 18 5 18H12C12.5523 18 13 17.5523 13 17C13 16.4477 12.5523 16 12 16H6C6 15.7374 5.94827 15.4773 5.84776 15.2346C5.74725 14.992 5.59993 14.7715 5.41422 14.5858C5.2285 14.4001 5.00801 14.2528 4.76537 14.1522C4.52272 14.0517 4.26265 14 4 14V8C4.26265 8 4.52272 7.94827 4.76537 7.84776C5.00801 7.74725 5.2285 7.59993 5.41422 7.41421C5.59993 7.2285 5.74725 7.00802 5.84776 6.76537C5.94827 6.52272 6 6.26264 6 6H18C18 6.26264 18.0517 6.52272 18.1522 6.76537C18.2527 7.00802 18.4001 7.2285 18.5858 7.41421C18.7715 7.59993 18.992 7.74725 19.2346 7.84776C19.4773 7.94827 19.7374 8 20 8V10C20 10.5523 20.4477 11 21 11C21.5523 11 22 10.5523 22 10V7C22 5.34315 20.6569 4 19 4H5Z" fill="#2D3242"/>
<path d="M15.7071 20.7071L21.7071 14.7071C22.0976 14.3166 22.0976 13.6834 21.7071 13.2929C21.3166 12.9024 20.6834 12.9024 20.2929 13.2929L14.2929 19.2929C13.9024 19.6834 13.9024 20.3166 14.2929 20.7071C14.6834 21.0976 15.3166 21.0976 15.7071 20.7071Z" fill="#2D3242"/>
<path d="M22 19.5C22 20.3284 21.3284 21 20.5 21C19.6716 21 19 20.3284 19 19.5C19 18.6716 19.6716 18 20.5 18C21.3284 18 22 18.6716 22 19.5Z" fill="#2D3242"/>
<path d="M15.5 16C16.3284 16 17 15.3284 17 14.5C17 13.6716 16.3284 13 15.5 13C14.6716 13 14 13.6716 14 14.5C14 15.3284 14.6716 16 15.5 16Z" fill="#2D3242"/>
<path d="M14.9999 11.0355L15 11C15 8.79086 13.6569 7 12 7C10.3431 7 9 8.79086 9 11C9 13.2091 10.3431 15 12 15L12.0354 14.9997C12.0121 14.8365 12 14.6697 12 14.5C12 12.7368 13.3038 11.2781 14.9999 11.0355Z" fill="#2D3242"/>
</svg>
