<svg width="32" height="32" viewBox="0 0 32 32" fill="none" xmlns="http://www.w3.org/2000/svg">
<rect width="32" height="32" rx="16" fill="#2D3242"/>
<path fill-rule="evenodd" clip-rule="evenodd" d="M5.53776 22.7552C5.83982 23.2494 6.19679 23.7162 6.58124 24.1556L14.7368 16.0275L6.58124 7.87185C6.19679 8.31121 5.86727 8.77803 5.53776 9.27231L12.2655 16.0275L5.53776 22.7552ZM4 12.7048C4.16476 12.0732 4.38444 11.4691 4.65904 10.8924L9.76659 16L4.65904 21.1076C4.38444 20.5309 4.16476 19.9268 4 19.2952L7.29519 16L4 12.7048ZM7.8444 25.3913L16 17.2632L24.1007 25.3913C23.6613 25.7757 23.1945 26.1053 22.7002 26.4347L15.9725 19.7071L9.24485 26.4347C8.75058 26.1327 8.28375 25.7757 7.8444 25.3913ZM16 22.2334L21.1076 27.341C20.5309 27.6155 19.9268 27.8352 19.2952 28L16 24.7048L12.7048 28C12.0732 27.8352 11.4691 27.6155 10.8924 27.341L16 22.2334ZM24.1556 6.58124L16 14.7368L7.8444 6.58124C8.28375 6.19679 8.75058 5.86727 9.24485 5.53776L16 12.2655L22.7552 5.53776C23.2494 5.83982 23.7162 6.19679 24.1556 6.58124ZM28 19.2952C27.8352 19.9268 27.6155 20.5309 27.341 21.1076L22.2334 16L27.341 10.8924C27.6155 11.4691 27.8352 12.0732 28 12.7048L24.7048 16L28 19.2952ZM26.4347 9.27231L19.7071 16L26.4623 22.7552C26.1602 23.2494 25.8032 23.7162 25.4188 24.1556L17.2632 16L25.3913 7.87185C25.7757 8.31121 26.1053 8.77803 26.4347 9.27231ZM21.1076 4.65904L16 9.76659L10.8924 4.65904C11.4691 4.38444 12.0732 4.16476 12.7048 4L16 7.29519L19.2952 4C19.9268 4.16476 20.5309 4.38444 21.1076 4.65904Z" fill="white"/>
</svg>
