<svg width="32" height="32" viewBox="0 0 32 32" fill="none" xmlns="http://www.w3.org/2000/svg">
<rect width="32" height="32" rx="16" fill="#2D3242"/>
<path fill-rule="evenodd" clip-rule="evenodd" d="M16.568 9.49394C18.6628 9.06773 20.4551 9.20697 21.1485 10.9906C21.6582 12.2951 21.309 13.2707 20.518 13.9987C22.1298 13.9093 23.3232 14.5102 23.6868 16.5366C24.1389 19.053 22.4575 20.2582 19.8347 21.1913L20.5526 23.7635L18.9677 24.2297L18.2597 21.6918C17.8491 21.813 17.4275 21.9333 16.9904 22.0523L17.7024 24.6017L16.1191 25.067L15.3989 22.4906C15.2504 22.5332 15.1007 22.5755 14.9499 22.6182C14.7234 22.6822 14.4946 22.7469 14.2641 22.8144L12.2016 23.4209L11.9993 21.4764C11.9993 21.4764 13.1767 21.1495 13.1515 21.1379C13.5998 21.0052 13.6305 20.6551 13.6035 20.4491L12.4684 16.3832C12.5072 16.3714 12.5453 16.3602 12.5821 16.3495C12.6004 16.3441 12.6183 16.3389 12.6358 16.3337C12.5679 16.3442 12.5096 16.3594 12.4652 16.3722L11.6546 13.4699C11.5059 13.1731 11.1951 12.8699 10.5531 13.0584C10.5667 13.0316 9.40241 13.3976 9.40241 13.3976L8.93945 11.7415L11.1256 11.0994L11.128 11.1073C11.4565 11.0105 11.7917 10.9051 12.133 10.7974L11.4223 8.25027L13.0063 7.78452L13.7034 10.2815C14.1242 10.1488 14.5479 10.0156 14.9645 9.89298L14.2716 7.41249L15.8565 6.94629L16.568 9.49394ZM16.8144 20.078C18.1171 19.714 20.9641 18.9185 20.4699 17.1521C19.9655 15.3456 17.258 16.2099 15.9368 16.6316C15.7892 16.6788 15.6589 16.7204 15.5509 16.7521L16.5039 20.1661C16.5925 20.14 16.6972 20.1107 16.8144 20.078ZM15.376 15.1157C16.4635 14.8148 18.8357 14.1584 18.3876 12.5523C17.9287 10.9099 15.6743 11.6365 14.5733 11.9914C14.4495 12.0313 14.3402 12.0665 14.2498 12.0931L15.1144 15.1894C15.1889 15.1675 15.2771 15.1431 15.376 15.1157Z" fill="white"/>
</svg>
