<svg width="32" height="32" viewBox="0 0 32 32" fill="none" xmlns="http://www.w3.org/2000/svg">
<rect width="32" height="32" rx="16" fill="#2D3242"/>
<path fill-rule="evenodd" clip-rule="evenodd" d="M18.0667 9.72273C20.2026 9.89747 21.8905 10.5455 22.064 12.5072C22.1933 13.9427 21.5865 14.8084 20.6227 15.3034C22.2 15.6738 23.183 16.608 22.9715 18.716C22.7095 21.334 20.7557 22.0475 17.9707 22.2238L17.949 24.9727L16.2932 24.9827L16.3148 22.2706C15.8857 22.2735 15.4462 22.2725 14.9921 22.2658L14.9713 24.9905L13.3172 25L13.3376 22.2463C13.1828 22.2462 13.0269 22.2455 12.8698 22.2447C12.6339 22.2436 12.3956 22.2424 12.1548 22.2436L10 22.2564L10.3442 20.2752C10.3442 20.2752 11.5689 20.2871 11.5478 20.2684C12.0164 20.2648 12.1431 19.9272 12.1742 19.7158L12.2079 15.3705C12.2485 15.3699 12.2884 15.3698 12.3268 15.3696C12.3459 15.3695 12.3646 15.3694 12.3829 15.3693C12.3146 15.3603 12.2542 15.3587 12.2079 15.3587L12.2316 12.257C12.1707 11.9211 11.9554 11.5326 11.2847 11.5364C11.3052 11.5138 10.0822 11.5444 10.0822 11.5444L10.0954 9.77431L12.3792 9.76154L12.3793 9.76998C12.7226 9.76771 13.0747 9.75896 13.4333 9.74951L13.4548 7.02755L15.1097 7.01778L15.089 9.6863C15.5311 9.67485 15.9761 9.6636 16.4114 9.66096L16.4317 7.01L18.0875 7L18.0667 9.72273ZM15.37 20.2627C16.7256 20.2735 19.6885 20.2971 19.7022 18.4091C19.7171 16.4784 16.8695 16.5626 15.48 16.6037C15.3247 16.6083 15.1877 16.6124 15.0748 16.613L15.0464 20.2615C15.139 20.2609 15.248 20.2618 15.37 20.2627ZM15.36 14.9445C16.491 14.9564 18.9579 14.9824 18.9716 13.2661C18.9849 11.5108 16.6119 11.5878 15.453 11.6254C15.3226 11.6296 15.2076 11.6333 15.1131 11.6339L15.0876 14.9429C15.1655 14.9425 15.2572 14.9434 15.36 14.9445Z" fill="white"/>
</svg>
