<svg width="32" height="32" viewBox="0 0 32 32" fill="none" xmlns="http://www.w3.org/2000/svg">
<g clip-path="url(#clip0_2636_20573)">
<circle cx="16" cy="16" r="16" fill="#2D3242"/>
<path d="M12.4617 9.61753C12.8984 9.73771 13.3351 9.81784 13.7719 9.93803C14.2086 10.0582 14.6454 10.1383 15.0821 10.2585C15.2012 10.2986 15.2409 10.2585 15.2806 10.1383C15.4395 9.45728 15.5983 8.81628 15.7571 8.13521C15.7968 8.01502 15.8365 7.97496 15.9556 8.01502C16.3527 8.13521 16.71 8.21534 17.107 8.29546C17.2261 8.33552 17.2261 8.37559 17.1864 8.45571C17.0276 9.09671 16.8688 9.77778 16.71 10.4188C16.71 10.4588 16.71 10.4989 16.6703 10.579C16.9879 10.6592 17.3453 10.7393 17.6629 10.8194C17.7026 10.8194 17.7423 10.7393 17.782 10.6992C17.9011 10.1784 18.0202 9.69765 18.179 9.17684C18.2187 9.01659 18.2584 8.85634 18.2981 8.69609C18.2981 8.61596 18.3379 8.5759 18.4173 8.61596C18.8143 8.73615 19.2113 8.81628 19.6481 8.93646C19.6878 8.93646 19.6878 8.97653 19.7275 8.97653C19.6084 9.49734 19.4893 9.97809 19.3702 10.4588C19.3305 10.6592 19.2908 10.8595 19.2113 11.0598C19.1716 11.18 19.2113 11.22 19.3305 11.2601C19.7672 11.4604 20.2039 11.6607 20.6407 11.861C21.0377 12.1014 21.3951 12.4219 21.673 12.8225C22.0303 13.4235 22.07 14.0645 21.9112 14.7055C21.7921 15.1462 21.6333 15.5468 21.3157 15.8673C21.0774 16.1077 20.7598 16.2679 20.4422 16.3881C20.4025 16.3881 20.3628 16.4282 20.2834 16.4282C20.4422 16.5484 20.601 16.6285 20.7598 16.7487C21.2363 17.1092 21.5539 17.5499 21.7127 18.1108C21.7921 18.5515 21.7524 19.0322 21.6333 19.4729C21.4745 20.0338 21.276 20.5146 20.9186 20.9552C20.4819 21.4761 19.926 21.7565 19.2908 21.8366C18.457 21.9568 17.6629 21.8767 16.8688 21.7565C16.7497 21.7164 16.6703 21.7565 16.6306 21.8767C16.4718 22.5177 16.3129 23.1987 16.1541 23.8398C16.1144 24 16.1144 24.0401 15.9159 23.9599C15.5586 23.8798 15.1615 23.7596 14.8042 23.6795C14.6851 23.6394 14.6851 23.5994 14.7248 23.5192C14.8836 22.8382 15.0424 22.1571 15.2409 21.5161C15.2409 21.436 15.2806 21.3959 15.2012 21.3559C14.8836 21.2757 14.566 21.1956 14.2086 21.1155C14.1292 21.4761 14.0101 21.8366 13.9307 22.1972C13.8513 22.5577 13.7322 22.9183 13.6528 23.2789C13.6131 23.359 13.6131 23.3991 13.494 23.359C13.0969 23.2388 12.6999 23.1587 12.3028 23.0786C12.1837 23.0385 12.1837 22.9984 12.2234 22.9183C12.3822 22.2372 12.5411 21.5562 12.7396 20.9152C12.7396 20.8751 12.7793 20.8351 12.7793 20.7549C11.8661 20.5146 10.9529 20.2742 10 20.0338C10.0794 19.8736 10.1191 19.7534 10.1985 19.5931C10.3573 19.2326 10.5162 18.872 10.6353 18.5515C10.675 18.4313 10.7147 18.4313 10.8338 18.4313C11.1117 18.5114 11.4293 18.5915 11.7073 18.6316C12.0249 18.7117 12.2631 18.5515 12.3028 18.271C12.819 16.2279 13.3351 14.1847 13.8116 12.1014C13.891 11.7809 13.6925 11.4203 13.3351 11.3002C12.9778 11.18 12.6205 11.0998 12.3028 11.0197C12.2234 11.0197 12.1837 10.9797 12.2234 10.8995C12.3425 10.4588 12.4617 9.97809 12.5808 9.5374C12.4219 9.65759 12.4219 9.65759 12.4617 9.61753ZM14.4866 19.513C14.5263 19.513 14.566 19.5531 14.566 19.5531C15.2012 19.7133 15.8762 19.9136 16.5512 19.9537C17.0276 19.9937 17.4644 19.9937 17.9011 19.8335C18.6555 19.5931 18.9731 18.5915 18.5364 17.9505C18.3379 17.63 18.0202 17.4297 17.7026 17.2294C16.9879 16.8288 16.1541 16.6685 15.36 16.5083C15.2409 16.4682 15.2409 16.5083 15.2012 16.6285C15.1218 17.0291 15.0027 17.3897 14.9233 17.7903C14.7645 18.3512 14.6454 18.9121 14.4866 19.513ZM17.8217 15.4266C17.9011 15.4266 18.0996 15.3865 18.2584 15.3465C19.0128 15.1862 19.4099 14.3049 19.0128 13.6238C18.8143 13.2632 18.457 13.0228 18.0996 12.8626C17.5438 12.6222 16.9879 12.502 16.3924 12.3418C16.2732 12.3017 16.2335 12.3418 16.1938 12.462C15.9953 13.3033 15.7968 14.1045 15.5586 14.9459C15.5189 15.026 15.5586 15.066 15.638 15.1061C15.7968 15.1462 15.9159 15.1862 16.0747 15.2263C16.6703 15.3064 17.1864 15.4266 17.8217 15.4266Z" fill="white"/>
</g>
<defs>
<clipPath id="clip0_2636_20573">
<rect width="32" height="32" fill="white"/>
</clipPath>
</defs>
</svg>
