<svg width="32" height="32" viewBox="0 0 32 32" fill="none" xmlns="http://www.w3.org/2000/svg">
<rect width="32" height="32" rx="16" fill="#2D3242"/>
<path fill-rule="evenodd" clip-rule="evenodd" d="M17.2815 7.21572C17.6108 7.30219 17.8969 7.38955 17.9173 7.40995C17.9378 7.43028 17.8265 7.93574 17.6699 8.53317C17.3761 9.65416 17.3779 9.74063 17.695 9.74539C17.7568 9.74636 18.0182 9.81078 18.2758 9.88868L18.7443 10.0302L18.8527 9.64604C18.9125 9.43476 19.0463 8.94748 19.1501 8.56311C19.254 8.17875 19.3561 7.84734 19.377 7.82656C19.4159 7.78798 20.7093 8.09981 20.8378 8.17875C20.8793 8.20415 20.7821 8.69687 20.6049 9.36021C20.4377 9.98602 20.3133 10.5078 20.3285 10.5196C20.3436 10.5315 20.7439 10.725 21.218 10.9497C21.6921 11.1743 22.3064 11.5027 22.583 11.6793C23.1621 12.049 23.1863 11.9235 22.3484 12.8968L21.7923 13.5428L21.5614 13.3907C21.2235 13.1682 19.6149 12.4045 19.0068 12.178C17.313 11.5472 15.6901 11.4 14.9714 11.8121C14.6463 11.9985 14.4533 12.3874 14.5074 12.7475C14.6085 13.4219 15.2253 13.9705 16.918 14.8916C20.2118 16.684 21.2205 17.5124 21.6756 18.7989C22.0489 19.8543 21.594 21.1517 20.6251 21.7944C19.9305 22.2554 19.1097 22.4857 17.9851 22.5355L17.0331 22.5775L16.9611 22.8458C16.9216 22.9934 16.7784 23.533 16.6429 24.0451C16.5075 24.5571 16.3906 24.9846 16.3833 24.9951C16.3435 25.0517 14.8469 24.6043 14.848 24.5361C14.8487 24.4913 14.9793 23.9855 15.1382 23.412C15.3393 22.6863 15.4015 22.3549 15.343 22.3216C15.2146 22.2487 14.0935 22.0129 14.0554 22.0508C14.008 22.0979 13.4974 23.9636 13.4974 24.0897C13.4974 24.1471 13.4384 24.1935 13.3662 24.1928C13.1185 24.1907 11.9689 23.8458 11.9421 23.7657C11.9272 23.7215 12.035 23.2365 12.1815 22.6877C12.3281 22.139 12.448 21.64 12.448 21.5789C12.448 21.5121 12.2911 21.4128 12.0545 21.3299C11.1761 21.0218 9 19.8347 9 19.6635C9 19.5864 10.1777 18.1326 10.2639 18.1034C10.2979 18.092 10.6261 18.2707 10.9933 18.5007C12.8436 19.6599 14.836 20.3266 16.4708 20.3336C17.6248 20.3386 18.1675 20.0984 18.4063 19.4773C18.5857 19.0106 18.4666 18.6233 18.0018 18.1614C17.5598 17.7222 17.4393 17.6467 15.4463 16.5611C13.9818 15.7634 13.3117 15.3644 13.0741 15.149C13.0268 15.106 12.8413 14.9559 12.6619 14.8153C12.1984 14.4522 11.6534 13.806 11.4327 13.3578C10.7285 11.9277 11.4387 10.2684 12.9909 9.71732C13.6862 9.47043 14.4278 9.35775 15.1769 9.38509L15.7694 9.40676L16.0605 8.29165C16.4243 6.89779 16.3953 6.97279 16.5515 7.01941C16.6239 7.04093 16.9524 7.12933 17.2815 7.21572Z" fill="white"/>
</svg>
