<svg width="32" height="32" viewBox="0 0 32 32" fill="none" xmlns="http://www.w3.org/2000/svg">
<rect width="32" height="32" rx="16" fill="#2D3242"/>
<path d="M9.71324 7.17865C8.41541 7.55738 7.72212 8.37839 7.5429 9.74879C7.50556 10.0334 7.47411 11.2275 7.47289 12.4026L7.47274 12.7723C7.47267 14.1422 7.47267 14.6036 7.25373 14.7573C7.14258 14.8353 6.97491 14.8339 6.72223 14.832C6.68 14.8317 6.63541 14.8313 6.58824 14.8313H6V17.1687H6.56511C7.04413 17.1687 7.15615 17.1928 7.30041 17.3275L7.47059 17.4863L7.47202 19.6466C7.4736 21.9416 7.52351 22.5375 7.7688 23.1887C7.95729 23.6891 8.52915 24.3301 8.98089 24.5473C9.6983 24.8924 9.96966 24.9268 12.2684 24.9643L14.4559 25V22.6468H12.7575C10.8691 22.6468 10.7041 22.6142 10.4453 22.1892C10.3124 21.9708 10.2987 21.7683 10.2647 19.506C10.2298 17.1838 10.2197 17.0414 10.0669 16.7127C9.97834 16.5222 9.81635 16.2838 9.70684 16.1831L9.50794 16L9.70684 15.8169C9.81635 15.7162 9.97834 15.4778 10.0669 15.2873C10.2198 14.9585 10.2298 14.8163 10.2647 12.4905L10.2655 12.44C10.2964 10.3804 10.3031 9.92562 10.5351 9.68566C10.6028 9.61565 10.6896 9.56394 10.8017 9.496C11.0168 9.36571 11.1815 9.35366 12.7463 9.35344L14.4559 9.35312V7L12.2684 7.0357C10.6494 7.06209 9.98538 7.09926 9.71324 7.17865Z" fill="white"/>
<path d="M22.2868 7.17865C23.5846 7.55738 24.2779 8.37839 24.4571 9.74879C24.4944 10.0334 24.5259 11.2275 24.5271 12.4026L24.5273 12.7723C24.5273 14.1422 24.5273 14.6036 24.7463 14.7573C24.8574 14.8353 25.0251 14.8339 25.2778 14.832C25.32 14.8317 25.3646 14.8313 25.4118 14.8313H26V17.1687H25.4349C24.9559 17.1687 24.8439 17.1928 24.6996 17.3275L24.5294 17.4863L24.528 19.6466C24.5264 21.9416 24.4765 22.5375 24.2312 23.1887C24.0427 23.6891 23.4708 24.3301 23.0191 24.5473C22.3017 24.8924 22.0303 24.9268 19.7316 24.9643L17.5441 25V22.6468H19.2425C21.1309 22.6468 21.2959 22.6142 21.5547 22.1892C21.6876 21.9708 21.7013 21.7683 21.7353 19.506C21.7702 17.1838 21.7803 17.0414 21.9331 16.7127C22.0217 16.5222 22.1837 16.2838 22.2932 16.1831L22.4921 16L22.2932 15.8169C22.1837 15.7162 22.0217 15.4778 21.9331 15.2873C21.7802 14.9585 21.7702 14.8163 21.7353 12.4905L21.7345 12.44C21.7036 10.3804 21.6969 9.92562 21.4649 9.68566C21.3992 9.61765 21.3154 9.5669 21.2078 9.50177L21.1983 9.496C20.9832 9.36571 20.8185 9.35366 19.2537 9.35344L17.5441 9.35312V7L19.7316 7.0357C21.3506 7.06209 22.0146 7.09926 22.2868 7.17865Z" fill="white"/>
<path fill-rule="evenodd" clip-rule="evenodd" d="M19.6765 16C19.6765 18.017 18.0305 19.6521 16 19.6521C13.9695 19.6521 12.3235 18.017 12.3235 16C12.3235 13.983 13.9695 12.3479 16 12.3479C18.0305 12.3479 19.6765 13.983 19.6765 16ZM17.9118 16C17.9118 17.0488 17.0558 17.8991 16 17.8991C14.9442 17.8991 14.0882 17.0488 14.0882 16C14.0882 14.9511 14.9442 14.1009 16 14.1009C17.0558 14.1009 17.9118 14.9511 17.9118 16Z" fill="white"/>
</svg>
