<svg width="32" height="32" viewBox="0 0 32 32" fill="none" xmlns="http://www.w3.org/2000/svg">
<rect width="32" height="32" rx="16" fill="#2D3242"/>
<path fill-rule="evenodd" clip-rule="evenodd" d="M12.3065 8.0841C12.9961 8.29929 13.188 8.90907 12.8602 9.84382C12.8089 9.99022 12.7749 10.1182 12.7846 10.1283C12.7943 10.1384 12.8571 10.0925 12.9242 10.0264C13.3985 9.55956 14.1114 9.34117 14.6962 9.48363C15.3415 9.64088 16.0701 10.2258 16.1387 10.6417C16.2113 11.0815 15.6912 11.4841 14.7039 11.7522C14.5597 11.7914 14.4286 11.8351 14.4126 11.8493C14.3967 11.8635 14.5579 11.9506 14.7709 12.0428C16.8722 12.9531 18.7712 14.5878 19.9441 16.496C20.2063 16.9227 20.5825 17.7417 20.7353 18.2189C20.9295 18.8251 21.0225 19.3348 21.0482 19.9342C21.1046 21.2519 20.6769 22.392 19.7701 23.3406C19.5878 23.5314 19.4386 23.6922 19.4386 23.6981C19.4386 23.704 19.5616 23.7503 19.712 23.8011C19.934 23.876 20.0634 23.8931 20.4002 23.8918C20.9955 23.8894 21.5705 23.7373 22.2533 23.4015C23.6552 22.712 24.1709 21.7409 24.1027 19.9193C24.0674 18.9788 23.9313 18.0843 23.4552 15.6635C23.1637 14.1816 23.1097 13.7025 23.1696 13.1269C23.2254 12.5899 23.3276 12.2217 23.5377 11.8008C24.0639 10.746 25.282 10.0227 26.8303 9.84565L27 9.82625L26.8114 9.88297C25.4964 10.2787 24.9641 10.5615 24.4576 11.1337C24.0416 11.6037 23.8569 12.1147 23.8246 12.8848C23.7916 13.673 23.9009 14.296 24.4173 16.2618C24.9571 18.3169 25.0759 19.0175 25.076 20.1463C25.0761 20.9812 25.041 21.2472 24.8449 21.8983C24.2974 23.7157 22.6712 24.7558 20.042 24.9702C18.9116 25.0624 17.2751 24.9358 15.9804 24.6559C15.6328 24.5808 15.477 24.5774 12.2863 24.5774H8.95499L9.01835 24.4115C9.24617 23.8148 9.74508 23.377 10.4063 23.1935C10.7342 23.1025 11.3663 23.0742 11.8017 23.131C12.1961 23.1823 12.9087 23.3524 13.2605 23.4792L13.4747 23.5563L13.4064 23.3912C13.3047 23.1456 13.041 22.299 12.955 21.9422C12.7645 21.1511 12.7103 20.2948 12.8176 19.7707C13.0281 18.7429 13.8585 18.2613 15.1002 18.4471C15.2342 18.4671 15.3501 18.4771 15.3577 18.4692C15.3896 18.4363 15.0015 18.2364 14.7323 18.1471C14.4887 18.0663 14.3858 18.0531 14.0971 18.0655C13.7913 18.0787 13.7208 18.0966 13.4699 18.225C12.9731 18.4792 12.6138 18.9642 12.437 19.6193C12.3816 19.8247 12.3688 20.0145 12.3698 20.6148C12.3709 21.2702 12.383 21.4148 12.4735 21.8562C12.5299 22.1311 12.6248 22.513 12.6845 22.705L12.7929 23.0541L12.6874 22.9764C12.4397 22.7938 11.856 22.2226 11.5943 21.9067C11.136 21.3536 10.8568 20.924 10.5636 20.3212C10.2443 19.6648 10.0947 19.2067 9.93273 18.3895C9.80319 17.736 9.76344 17.6633 9.4485 17.5052C9.19978 17.3803 8.73573 17.3804 8.35106 17.5054C7.9797 17.6261 7.60498 17.8124 7.24652 18.0547C6.92095 18.2747 6.91167 18.2685 7.01474 17.8988C7.13693 17.4605 7.4404 17.1293 7.94093 16.8881C8.2556 16.7365 8.5472 16.6597 9.02038 16.6039C9.23297 16.5788 9.40694 16.5477 9.40694 16.5347C9.40694 16.5217 9.2984 16.2837 9.16573 16.0058C8.59083 14.8014 7.78148 13.7908 6.76055 13.0026C6.31045 12.6551 6.29548 12.6598 6.32244 13.1415C6.3353 13.3721 6.36415 13.4961 6.44014 13.6477C6.49547 13.7581 6.54076 13.8744 6.54076 13.9062C6.54076 14.0096 6.37777 13.9452 6.28741 13.8061C6.12411 13.5546 6.07256 13.2032 6.13508 12.7676L6.16311 12.5724L6.01448 12.4846C5.93272 12.4363 5.84937 12.3968 5.8292 12.3968C5.70912 12.3968 5.61065 13.1399 5.6837 13.4951C5.71666 13.6555 5.6533 13.7161 5.5413 13.6313C5.49306 13.5948 5.47239 13.5008 5.4572 13.2482C5.43819 12.9328 5.48657 12.6629 5.62215 12.3285C5.64237 12.2786 5.14667 12.0069 5.0333 12.0058C4.9337 12.0047 5.06068 11.9392 5.37166 11.8313L5.65451 11.7332L5.65541 11.3134C5.65621 10.946 5.66794 10.8696 5.7497 10.7004C5.84854 10.4959 5.88686 10.4643 5.97002 10.5188C6.01244 10.5466 6.00641 10.5931 5.93581 10.7817C5.85239 11.0047 5.80687 11.5718 5.86736 11.6346C5.88075 11.6484 5.97409 11.6349 6.07478 11.6045L6.25792 11.5493L6.29797 11.2605C6.31999 11.1017 6.37698 10.8927 6.42461 10.7961C6.52379 10.5948 6.72031 10.3666 6.79449 10.3666C6.89059 10.3666 6.88738 10.4831 6.78793 10.6055C6.62995 10.7998 6.52832 11.0326 6.50294 11.2582C6.47552 11.502 6.38075 11.4953 7.23845 11.3106C8.02148 11.142 8.62677 11.0686 9.4534 11.0417L10.1598 11.0189L10.1326 10.9172C10.0776 10.7122 10.1054 9.58029 10.1722 9.30244C10.3903 8.39576 10.9434 7.95495 11.8017 8.00363C11.9676 8.01304 12.1948 8.04927 12.3065 8.0841ZM9.3805 11.8096C9.00503 12.0466 9.12911 12.5691 9.57314 12.6209C9.98746 12.6693 10.2472 12.3283 10.0686 11.9706C9.95834 11.75 9.60565 11.6674 9.3805 11.8096Z" fill="white"/>
</svg>
