<svg width="36" height="36" viewBox="0 0 36 36" fill="none" xmlns="http://www.w3.org/2000/svg">
    <path fill-rule="evenodd" clip-rule="evenodd"
        d="M18 0C8.05888 0 0 8.05888 0 18C0 27.9411 8.05888 36 18 36C27.9411 36 36 27.9411 36 18C36 8.05888 27.9411 0 18 0ZM27.75 16.8293V14.4389H21.9212L26.0145 8.25H22.92L17.9918 15.716L13.08 8.25H9.98549L14.0788 14.4389H8.25V16.8293H27.75ZM25.949 27.75L21.8067 21.4792H27.75V19.1215H8.25V21.4956H14.1933L10.051 27.75H13.1291L17.9918 20.3823L22.8545 27.75H25.949Z"
        fill="white" />
</svg>