<svg width="32" height="32" viewBox="0 0 32 32" fill="none" xmlns="http://www.w3.org/2000/svg">
<g clip-path="url(#clip0_2636_20597)">
<circle cx="16" cy="16" r="16" fill="#2D3242"/>
<circle cx="16" cy="16" r="13.5" stroke="#0E1015"/>
<path fill-rule="evenodd" clip-rule="evenodd" d="M11.1249 10.6576C11.3193 10.6604 11.5122 10.657 11.7051 10.6536C11.9291 10.6497 12.1531 10.6458 12.3795 10.6516C12.6059 10.6574 12.8299 10.6535 13.0539 10.6496C13.2779 10.6457 13.5019 10.6418 13.7284 10.6476C13.8536 10.6578 13.8825 10.6094 13.8921 10.4831C13.8873 10.1335 13.8849 9.7936 13.8825 9.45369C13.88 9.11377 13.8776 8.77386 13.8728 8.42423C13.8824 8.29802 13.9113 8.24958 14.0366 8.25982C14.4509 8.28098 14.817 8.2728 15.2216 8.25507C15.3469 8.26531 15.3565 8.30419 15.3373 8.39152C15.3373 8.72171 15.3397 9.06162 15.3421 9.40154C15.3445 9.74145 15.347 10.0814 15.347 10.4116C15.3566 10.4504 15.3662 10.4893 15.347 10.5766C15.5108 10.5773 15.6842 10.5756 15.8576 10.5739C16.031 10.5722 16.2045 10.5705 16.3683 10.5712C16.3939 10.5648 16.4111 10.5239 16.4282 10.483C16.4368 10.4625 16.4453 10.4421 16.455 10.4259C16.4453 9.89173 16.4453 9.39645 16.4742 8.85272L16.4741 8.35744C16.4549 8.27966 16.4838 8.23123 16.5705 8.25101C16.8063 8.26306 17.039 8.2625 17.2792 8.26193C17.461 8.2615 17.6472 8.26105 17.8423 8.26605C17.8615 8.26128 17.8736 8.26861 17.8856 8.27595C17.8977 8.28328 17.9097 8.29062 17.929 8.28584C17.9386 8.81996 17.9387 9.3152 17.9387 9.81044C17.9483 10.0144 17.958 10.2186 17.9291 10.4321C17.9194 10.5583 17.9676 10.5876 18.0929 10.5979L19.5092 10.866C19.9524 11.0038 20.3763 11.229 20.7424 11.551C21.2338 12.0483 21.4266 12.661 21.4266 13.3214C21.417 13.7778 21.3592 14.2048 21.128 14.5923C20.9545 14.8829 20.6848 15.1149 20.4054 15.3079C20.3894 15.3119 20.3751 15.3225 20.3583 15.335C20.3346 15.3526 20.306 15.3738 20.2609 15.385C20.3524 15.4242 20.4415 15.4538 20.5306 15.4833C20.6198 15.5128 20.7089 15.5423 20.8004 15.5815C21.3496 15.8169 21.7639 16.1682 22.053 16.6744C22.236 17.0831 22.3131 17.5593 22.3035 18.0157C22.2843 18.5983 22.2072 19.1127 21.9664 19.6264C21.6677 20.237 21.1956 20.6429 20.5983 20.8734C19.8179 21.1906 19.0279 21.3039 18.2282 21.3782C18.1029 21.368 18.0355 21.426 18.0259 21.5522C18.0259 21.8824 18.0283 22.2223 18.0307 22.5622C18.0331 22.9021 18.0356 23.242 18.0356 23.5722C18.0356 23.5793 18.0356 23.5862 18.0356 23.5928C18.036 23.7405 18.0361 23.7749 17.8332 23.7462C17.6502 23.7503 17.4551 23.747 17.26 23.7438C17.0649 23.7405 16.8698 23.7373 16.6867 23.7414C16.5615 23.7311 16.5518 23.6922 16.5711 23.6049C16.5614 22.9056 16.5518 22.2064 16.5903 21.5364C16.5849 21.5147 16.5833 21.4953 16.5818 21.4781C16.5781 21.4339 16.5757 21.4047 16.5132 21.3905C16.1857 21.3891 15.8579 21.3877 15.4919 21.3959C15.4967 21.5804 15.4919 21.7673 15.4871 21.9543C15.4823 22.1412 15.4775 22.3281 15.4823 22.5127C15.4872 22.6972 15.4823 22.8841 15.4775 23.0711C15.4727 23.258 15.4679 23.4449 15.4727 23.6294C15.4705 23.6398 15.4686 23.6495 15.4668 23.6586C15.4539 23.7253 15.4482 23.7544 15.3379 23.7454C14.9236 23.7243 14.5189 23.742 14.1143 23.7597C13.989 23.7495 13.9794 23.7106 13.9986 23.6233C13.989 22.924 13.9793 22.2247 14.0178 21.5548C14.0138 21.5387 14.0164 21.5209 14.0195 21.5002C14.0239 21.4708 14.0291 21.4353 14.0178 21.3897C13.0736 21.376 12.1294 21.3624 11.1467 21.3582C11.1659 21.2709 11.178 21.1957 11.19 21.1205C11.2021 21.0453 11.2141 20.9701 11.2334 20.8827C11.3008 20.4946 11.3682 20.1064 11.4067 19.7666C11.4164 19.6404 11.4549 19.6309 11.5705 19.6022C11.8596 19.6132 12.1872 19.6145 12.4666 19.5866C12.7941 19.5879 12.9868 19.3751 12.9579 19.0933C12.9675 16.986 12.977 14.8786 12.9384 12.7419C12.9384 12.4117 12.659 12.1095 12.2832 12.0788C11.9812 12.0541 11.6853 12.0546 11.4107 12.055C11.3437 12.0551 11.278 12.0552 11.2137 12.0549C11.1367 12.074 11.0885 12.0447 11.1078 11.9573C11.1126 11.7291 11.115 11.4912 11.1174 11.2533C11.1194 11.0528 11.1214 10.8522 11.1249 10.6576ZM15.463 19.7934C15.463 19.7934 15.4148 19.764 15.3762 19.7736C15.3804 19.5062 15.3792 19.2478 15.378 18.9937C15.3764 18.6573 15.3748 18.3284 15.3858 17.9964C15.3762 17.7924 15.3786 17.5958 15.381 17.3991C15.3834 17.2025 15.3858 17.0058 15.3761 16.8019C15.377 16.7907 15.3777 16.7802 15.3783 16.7703C15.3851 16.6691 15.3872 16.6377 15.5014 16.647C15.5251 16.646 15.5489 16.6449 15.5728 16.6438C16.3604 16.6091 17.1817 16.5729 17.9486 16.7835C18.3051 16.9015 18.6616 17.0196 18.9314 17.2829C19.5095 17.8 19.4421 18.8486 18.7676 19.2634C18.3823 19.524 17.9583 19.629 17.4862 19.7047C16.9256 19.8089 16.3375 19.8023 15.774 19.7961C15.6693 19.7949 15.5656 19.7938 15.463 19.7934ZM18.0352 14.8221C17.8907 14.8992 17.7077 14.9859 17.6306 15.005C17.1833 15.1158 16.7817 15.1502 16.3668 15.1857C16.2098 15.1991 16.0508 15.2127 15.8867 15.2307C15.8048 15.2304 15.7325 15.2277 15.6603 15.2249C15.588 15.2222 15.5158 15.2195 15.4339 15.2191C15.3472 15.1993 15.299 15.17 15.3183 15.0827C15.3471 14.2088 15.3471 13.3833 15.3374 12.5189C15.347 12.3927 15.376 12.3443 15.5012 12.3545C15.6236 12.3569 15.7442 12.3582 15.8634 12.3595C16.3447 12.3646 16.8049 12.3695 17.2836 12.4494C17.669 12.519 18.0737 12.6663 18.3531 12.9686C18.9023 13.5341 18.7289 14.4851 18.0352 14.8221Z" fill="white"/>
</g>
<defs>
<clipPath id="clip0_2636_20597">
<rect width="32" height="32" fill="white"/>
</clipPath>
</defs>
</svg>
