<svg width="32" height="32" viewBox="0 0 32 32" fill="none" xmlns="http://www.w3.org/2000/svg">
<rect width="32" height="32" rx="16" fill="#2D3242"/>
<g clip-path="url(#clip0_5649_22700)">
<path d="M7.6304 5.0911C10.0318 3.24856 12.9741 2.24989 16.001 2.25C19.0278 2.25011 21.97 3.24897 24.3713 5.09168C24.6999 5.34385 24.7619 5.81467 24.5097 6.14327C24.2576 6.47188 23.7868 6.53385 23.4582 6.28168C21.3188 4.63999 18.6976 3.75009 16.0009 3.75C13.3043 3.74991 10.683 4.63962 8.5435 6.28116C8.21488 6.53331 7.74407 6.4713 7.49192 6.14268C7.23978 5.81405 7.30178 5.34324 7.6304 5.0911Z" fill="white"/>
<path fill-rule="evenodd" clip-rule="evenodd" d="M18.0667 9.72273C20.2026 9.89747 21.8905 10.5455 22.064 12.5072C22.1933 13.9427 21.5865 14.8084 20.6227 15.3034C22.2 15.6738 23.183 16.608 22.9715 18.716C22.7095 21.334 20.7557 22.0475 17.9707 22.2238L17.949 24.9727L16.2932 24.9827L16.3148 22.2706C15.8857 22.2735 15.4462 22.2725 14.9921 22.2658L14.9713 24.9905L13.3172 25L13.3376 22.2463C13.1832 22.2462 13.0276 22.2455 12.8709 22.2447L12.8698 22.2447C12.6339 22.2436 12.3956 22.2424 12.1548 22.2436L10 22.2564L10.3442 20.2752C10.3442 20.2752 11.5689 20.2871 11.5479 20.2684C12.0164 20.2648 12.1431 19.9272 12.1742 19.7158L12.2079 15.3705C12.2485 15.3699 12.2884 15.3698 12.3268 15.3696L12.3829 15.3693C12.3146 15.3603 12.2542 15.3587 12.2079 15.3587L12.2316 12.257C12.1707 11.9211 11.9554 11.5326 11.2847 11.5364C11.3052 11.5138 10.0822 11.5444 10.0822 11.5444L10.0954 9.77431L12.3792 9.76154L12.3793 9.76998C12.7226 9.76771 13.0747 9.75896 13.4333 9.74951L13.4548 7.02755L15.1097 7.01778L15.089 9.6863C15.5311 9.67485 15.9761 9.6636 16.4114 9.66096L16.4317 7.01L18.0875 7L18.0667 9.72273ZM15.37 20.2627C16.7256 20.2735 19.6885 20.2971 19.7022 18.4091C19.7171 16.4784 16.8695 16.5626 15.48 16.6037C15.3248 16.6083 15.1876 16.6124 15.0748 16.613L15.0464 20.2615C15.1389 20.2609 15.2482 20.2618 15.37 20.2627ZM15.36 14.9445C16.491 14.9564 18.9579 14.9824 18.9716 13.2661C18.9849 11.5108 16.6119 11.5878 15.453 11.6254C15.3228 11.6296 15.2075 11.6333 15.1131 11.6339L15.0876 14.9429C15.1655 14.9425 15.2572 14.9434 15.36 14.9445Z" fill="white"/>
<path d="M16.001 29.75C12.9741 29.7501 10.0318 28.7514 7.6304 26.9089C7.30178 26.6568 7.23978 26.1859 7.49192 25.8573C7.74407 25.5287 8.21488 25.4667 8.5435 25.7188C10.683 27.3604 13.3043 28.2501 16.0009 28.25C18.6976 28.2499 21.3188 27.36 23.4582 25.7183C23.7868 25.4661 24.2576 25.5281 24.5097 25.8567C24.7619 26.1853 24.6999 26.6561 24.3713 26.9083C21.97 28.751 19.0278 29.7499 16.001 29.75Z" fill="white"/>
<path d="M26.9089 7.62991C28.7514 10.0313 29.7501 12.9736 29.75 16.0005C29.7499 19.0273 28.751 21.9696 26.9083 24.3709C26.6561 24.6995 26.1853 24.7614 25.8567 24.5093C25.5281 24.2571 25.4661 23.7863 25.7183 23.4577C27.36 21.3183 28.2499 18.6971 28.25 16.0004C28.2501 13.3038 27.3604 10.6825 25.7188 8.54301C25.4667 8.21439 25.5287 7.74358 25.8573 7.49143C26.1859 7.23929 26.6568 7.30129 26.9089 7.62991Z" fill="white"/>
<path d="M2.25 16.0005C2.24989 12.9736 3.24856 10.0313 5.0911 7.62991C5.34324 7.30129 5.81405 7.23929 6.14268 7.49143C6.47131 7.74358 6.53331 8.21439 6.28116 8.54301C4.63962 10.6825 3.74991 13.3038 3.75 16.0004C3.75009 18.6971 4.63999 21.3183 6.28168 23.4577C6.53385 23.7863 6.47188 24.2571 6.14327 24.5093C5.81467 24.7614 5.34385 24.6995 5.09168 24.3709C3.24897 21.9696 2.25011 19.0273 2.25 16.0005Z" fill="white"/>
</g>
<defs>
<clipPath id="clip0_5649_22700">
<rect width="28" height="28" fill="white" transform="translate(2 2)"/>
</clipPath>
</defs>
</svg>
