<svg width="32" height="32" viewBox="0 0 32 32" fill="none" xmlns="http://www.w3.org/2000/svg">
<rect width="32" height="32" rx="16" fill="#2D3242"/>
<path d="M20.4001 18.5333C20.4001 16.2 19.0001 15.4 16.2001 15.0667C14.2001 14.8 13.8001 14.2667 13.8001 13.3333C13.8001 12.3999 14.4668 11.8 15.8001 11.8C17.0001 11.8 17.6668 12.2 18.0001 13.2C18.0668 13.4 18.2668 13.5333 18.4668 13.5333H19.5334C19.8001 13.5333 20.0001 13.3333 20.0001 13.0667V13C19.7334 11.5333 18.5334 10.4 17.0001 10.2667V8.66674C17.0001 8.40002 16.8001 8.20002 16.4668 8.1333H15.4668C15.2001 8.1333 15.0001 8.3333 14.9334 8.66674V10.2C12.9334 10.4667 11.6668 11.8 11.6668 13.4667C11.6668 15.6667 13.0001 16.5333 15.8001 16.8667C17.6668 17.2 18.2668 17.6 18.2668 18.6667C18.2668 19.7335 17.3334 20.4667 16.0668 20.4667C14.3334 20.4667 13.7334 19.7333 13.5334 18.7333C13.4668 18.4667 13.2668 18.3333 13.0668 18.3333H11.9334C11.6668 18.3333 11.4668 18.5333 11.4668 18.8V18.8667C11.7334 20.5333 12.8001 21.7333 15.0001 22.0667V23.6667C15.0001 23.9333 15.2001 24.1333 15.5334 24.2H16.5334C16.8001 24.2 17.0001 24 17.0668 23.6667V22.0667C19.0668 21.7333 20.4001 20.3333 20.4001 18.5333Z" fill="white"/>
<path d="M12.6003 25.5331C7.40032 23.6665 4.7336 17.8665 6.66704 12.7331C7.66704 9.93306 9.86704 7.79978 12.6003 6.79978C12.867 6.6665 13.0003 6.4665 13.0003 6.13306V5.19978C13.0003 4.93306 12.867 4.73306 12.6003 4.6665C12.5336 4.6665 12.4003 4.6665 12.3336 4.73306C6.00032 6.73306 2.5336 13.4665 4.5336 19.7998C5.7336 23.5331 8.60032 26.3998 12.3336 27.5998C12.6003 27.7331 12.867 27.5998 12.9336 27.3331C13.0003 27.2665 13.0003 27.1998 13.0003 27.0665V26.1331C13.0003 25.9331 12.8003 25.6665 12.6003 25.5331ZM19.667 4.73306C19.4003 4.59978 19.1336 4.73306 19.067 4.99978C19.0003 5.0665 19.0003 5.13306 19.0003 5.2665V6.19978C19.0003 6.4665 19.2003 6.73306 19.4003 6.8665C24.6003 8.73306 27.267 14.5331 25.3336 19.6665C24.3336 22.4665 22.1336 24.5998 19.4003 25.5998C19.1336 25.7331 19.0003 25.9331 19.0003 26.2665V27.1998C19.0003 27.4665 19.1336 27.6665 19.4003 27.7331C19.467 27.7331 19.6003 27.7331 19.667 27.6665C26.0003 25.6665 29.467 18.9331 27.467 12.5998C26.267 8.79978 23.3336 5.93306 19.667 4.73306Z" fill="white"/>
</svg>
