<svg width="32" height="32" viewBox="0 0 32 32" fill="none" xmlns="http://www.w3.org/2000/svg">
<rect width="32" height="32" rx="16" fill="#2D3242"/>
<path d="M9.39298 8H22.5599L22.5834 11.3393H17.6459V13.2958C22.1034 13.511 24 14.1684 24 15.007C24 15.8451 21.2399 16.7734 17.6459 16.9449V24H14.3541V16.9449C10.7601 16.7734 8 15.8451 8 15.007C8 14.1684 9.8966 13.441 14.3541 13.2958V11.3393H9.41655L9.39298 8ZM14.3541 13.7918C11.3976 13.9375 9.41655 14.3007 9.41655 14.9129C9.41655 15.6388 12.2129 16.1741 16 16.1741C19.7871 16.1741 22.5834 15.5687 22.5834 14.8428C22.5834 14.2307 20.6024 14.0076 17.6459 13.8618V15.2632C17.0972 15.2985 16.5942 15.3092 16 15.3092C15.4058 15.3092 14.9028 15.298 14.3541 15.2632V13.7918Z" fill="white"/>
</svg>
