<svg width="32" height="32" viewBox="0 0 32 32" fill="none" xmlns="http://www.w3.org/2000/svg">
<path d="M15.9997 2.66667V12L13.333 9.33333" stroke="white" stroke-width="1.5" stroke-linecap="round" stroke-linejoin="round"/>
<path d="M16 12L18.6667 9.33333" stroke="white" stroke-width="1.5" stroke-linecap="round" stroke-linejoin="round"/>
<path d="M2.66699 17.333H8.51965C9.02631 17.333 9.47965 17.613 9.70631 18.0663L11.2663 21.1863C11.7196 22.093 12.6396 22.6663 13.653 22.6663H18.3597C19.373 22.6663 20.293 22.093 20.7463 21.1863L22.3063 18.0663C22.533 17.613 22.9997 17.333 23.493 17.333H29.3337" stroke="white" stroke-width="1.5" stroke-linecap="round" stroke-linejoin="round"/>
<path d="M9.33366 6.83984C4.61366 7.53318 2.66699 10.3065 2.66699 15.9999V19.9999C2.66699 26.6665 5.33366 29.3332 12.0003 29.3332H20.0003C26.667 29.3332 29.3337 26.6665 29.3337 19.9999V15.9999C29.3337 10.3065 27.387 7.53318 22.667 6.83984" stroke="white" stroke-width="1.5" stroke-linecap="round" stroke-linejoin="round"/>
</svg>
