<svg width="32" height="32" viewBox="0 0 32 32" fill="none" xmlns="http://www.w3.org/2000/svg">
<path d="M22.6676 4.00016L22.6676 9.3335L28.001 9.3335" stroke="white" stroke-width="1.5" stroke-linecap="round" stroke-linejoin="round"/>
<path d="M29.334 2.66683L22.6673 9.3335" stroke="white" stroke-width="1.5" stroke-linecap="round" stroke-linejoin="round"/>
<path d="M21.3337 19.3337C21.3337 20.4382 20.4382 21.3337 19.3337 21.3337C18.2291 21.3337 17.3337 20.4382 17.3337 19.3337C17.3337 18.2291 18.2291 17.3337 19.3337 17.3337C20.4382 17.3337 21.3337 18.2291 21.3337 19.3337Z" fill="white"/>
<path d="M12.667 14.667C13.7716 14.667 14.667 13.7716 14.667 12.667C14.667 11.5624 13.7716 10.667 12.667 10.667C11.5624 10.667 10.667 11.5624 10.667 12.667C10.667 13.7716 11.5624 14.667 12.667 14.667Z" fill="white"/>
<path d="M20 12L12 20" stroke="white" stroke-width="1.5" stroke-linecap="round"/>
<path d="M16.0003 2.66634C13.3632 2.66634 10.7854 3.44833 8.59272 4.91341C6.40007 6.3785 4.6911 8.46088 3.68193 10.8972C2.67276 13.3336 2.40872 16.0145 2.92319 18.6009C3.43766 21.1873 4.70753 23.5631 6.57223 25.4278C8.43694 27.2925 10.8127 28.5623 13.3991 29.0768C15.9855 29.5913 18.6664 29.3272 21.1028 28.3181C23.5391 27.3089 25.6215 25.5999 27.0866 23.4073C28.5517 21.2146 29.3337 18.6368 29.3337 15.9997" stroke="white" stroke-width="1.5" stroke-linecap="round"/>
</svg>
