<svg width="56" height="56" viewBox="0 0 56 56" fill="none" xmlns="http://www.w3.org/2000/svg">
<rect width="56" height="56" rx="28" fill="white"/>
<path d="M16 23C16 20.2386 18.2386 18 21 18H35C37.7614 18 40 20.2386 40 23V26.5155C38.5699 25.5583 36.8501 25 35 25C30.0294 25 26 29.0294 26 34C26 34.6874 26.0771 35.3568 26.223 36H21C18.2386 36 16 33.7614 16 31V23Z" fill="#D23403"/>
<path d="M35 41C38.866 41 42 37.866 42 34C42 30.134 38.866 27 35 27C31.134 27 28 30.134 28 34C28 37.866 31.134 41 35 41Z" fill="#D23403"/>
<path d="M21 20C19.3431 20 18 21.3431 18 23V31C18 32.6569 19.3431 34 21 34H26C26 33.3126 26.0771 32.6432 26.223 32H22C22 31.7374 21.9483 31.4773 21.8478 31.2346C21.7473 30.992 21.5999 30.7715 21.4142 30.5858C21.2285 30.4001 21.008 30.2528 20.7654 30.1522C20.5227 30.0517 20.2626 30 20 30V24C20.2626 24 20.5227 23.9483 20.7654 23.8478C21.008 23.7472 21.2285 23.5999 21.4142 23.4142C21.5999 23.2285 21.7473 23.008 21.8478 22.7654C21.9483 22.5227 22 22.2626 22 22H34C34 22.2626 34.0517 22.5227 34.1522 22.7654C34.2527 23.008 34.4001 23.2285 34.5858 23.4142C34.7715 23.5999 34.992 23.7472 35.2346 23.8478C35.4773 23.9483 35.7374 24 36 24V25.0549C36.6935 25.1316 37.3632 25.287 38 25.5121V23C38 21.3431 36.6569 20 35 20H21Z" fill="white"/>
<path d="M26.6699 30.5864C27.4872 28.5942 28.9982 26.9601 30.9025 25.9847C30.5655 24.2672 29.3937 23 28 23C26.3431 23 25 24.7909 25 27C25 28.5723 25.6804 29.9327 26.6699 30.5864Z" fill="white"/>
<path d="M34 31.5C34 32.3284 33.3284 33 32.5 33C31.6716 33 31 32.3284 31 31.5C31 30.6716 31.6716 30 32.5 30C33.3284 30 34 30.6716 34 31.5Z" fill="white"/>
<path d="M32.7071 37.7071L38.7071 31.7071C39.0976 31.3166 39.0976 30.6834 38.7071 30.2929C38.3166 29.9024 37.6834 29.9024 37.2929 30.2929L31.2929 36.2929C30.9024 36.6834 30.9024 37.3166 31.2929 37.7071C31.6834 38.0976 32.3166 38.0976 32.7071 37.7071Z" fill="white"/>
<path d="M39 36.5C39 37.3284 38.3284 38 37.5 38C36.6716 38 36 37.3284 36 36.5C36 35.6716 36.6716 35 37.5 35C38.3284 35 39 35.6716 39 36.5Z" fill="white"/>
</svg>
