<svg width="24" height="24" viewBox="0 0 24 24" fill="none" xmlns="http://www.w3.org/2000/svg">
<g id="Add Coin Icon">
<g id="Icon">
<path d="M22.5317 5.48187C22.1786 4.56588 21.6367 3.73442 20.9413 3.04148C20.2459 2.34854 19.4125 1.80962 18.4953 1.45972C17.578 1.10982 16.5974 0.956763 15.6172 1.01049C14.637 1.06422 13.679 1.32353 12.8055 1.77159C11.932 2.21964 11.1625 2.84642 10.547 3.61122C10.2007 4.04147 10.2688 4.67096 10.6991 5.01723C11.1293 5.36349 11.7588 5.29541 12.1051 4.86515C12.5447 4.31887 13.0944 3.87118 13.7183 3.55114C14.3422 3.2311 15.0265 3.04587 15.7267 3.00749C16.4268 2.96912 17.1273 3.07844 17.7824 3.32837C18.4376 3.5783 19.0329 3.96324 19.5296 4.4582C20.0263 4.95315 20.4133 5.54706 20.6656 6.20133C20.9179 6.85561 21.0297 7.55563 20.9938 8.25593C20.9579 8.95623 20.7751 9.64115 20.4573 10.2662C20.1394 10.8913 19.6937 11.4425 19.149 11.8841C18.72 12.2319 18.6541 12.8616 19.0019 13.2906C19.3497 13.7196 19.9794 13.7855 20.4084 13.4377C21.171 12.8195 21.7951 12.0478 22.24 11.1727C22.685 10.2976 22.9409 9.33873 22.9911 8.3583C23.0414 7.37788 22.8849 6.39785 22.5317 5.48187Z" fill="white"/>
<path d="M10 12.0001C10 11.4478 9.55228 11.0001 9 11.0001C8.44772 11.0001 8 11.4478 8 12.0001V14.0001H6C5.44772 14.0001 5 14.4478 5 15.0001C5 15.5524 5.44772 16.0001 6 16.0001H8V18.0001C8 18.5524 8.44772 19.0001 9 19.0001C9.55228 19.0001 10 18.5524 10 18.0001V16.0001H12C12.5523 16.0001 13 15.5524 13 15.0001C13 14.4478 12.5523 14.0001 12 14.0001H10V12.0001Z" fill="white"/>
<path fill-rule="evenodd" clip-rule="evenodd" d="M1 15.0001C1 10.5818 4.58172 7.00008 9 7.00008C13.4183 7.00008 17 10.5818 17 15.0001C17 19.4184 13.4183 23.0001 9 23.0001C4.58172 23.0001 1 19.4184 1 15.0001ZM9 9.00008C5.68629 9.00008 3 11.6864 3 15.0001C3 18.3138 5.68629 21.0001 9 21.0001C12.3137 21.0001 15 18.3138 15 15.0001C15 11.6864 12.3137 9.00008 9 9.00008Z" fill="white"/>
</g>
</g>
</svg>
