<svg width="48" height="48" viewBox="0 0 48 48" fill="none" xmlns="http://www.w3.org/2000/svg">
<rect width="48" height="48" rx="24" fill="black" fill-opacity="0.4"/>
<g clip-path="url(#clip0_2611_16022)">
<path d="M35.0004 27.2188C34.5904 27.2188 34.2504 27.5588 34.2504 27.9688C34.2504 30.9288 32.1904 33.4087 29.4204 34.0587L29.6904 33.6088C29.9004 33.2488 29.7904 32.7886 29.4304 32.5786C29.0804 32.3686 28.6104 32.4786 28.4004 32.8386L27.3504 34.5886C27.2104 34.8186 27.2104 35.1086 27.3404 35.3386C27.4704 35.5786 27.7204 35.7187 27.9904 35.7187C32.2604 35.7187 35.7404 32.2386 35.7404 27.9688C35.7504 27.5588 35.4104 27.2188 35.0004 27.2188Z" fill="white"/>
<path d="M20 12.2188C15.73 12.2188 12.25 15.6988 12.25 19.9688C12.25 20.3787 12.59 20.7188 13 20.7188C13.41 20.7188 13.75 20.3787 13.75 19.9688C13.75 17.0087 15.81 14.5287 18.58 13.8787L18.31 14.3287C18.1 14.6887 18.21 15.1488 18.57 15.3588C18.92 15.5688 19.39 15.4588 19.6 15.0988L20.65 13.3487C20.78 13.1187 20.79 12.8388 20.65 12.5987C20.52 12.3687 20.27 12.2188 20 12.2188Z" fill="white"/>
<path d="M21.8091 26.2003C21.8091 26.0503 21.6391 25.8203 21.4291 25.8203H19.3691V26.5703H21.4291C21.6391 26.5803 21.8091 26.4103 21.8091 26.2003Z" fill="white"/>
<path d="M21.8291 28.0781H21.4291H19.3691V28.8281H21.8391C22.1591 28.8281 22.3791 28.6281 22.3791 28.4481C22.3791 28.2681 22.1491 28.0781 21.8291 28.0781Z" fill="white"/>
<path d="M26.83 26.8484C26.6 23.8184 24.18 21.3984 21.15 21.1684C20.99 21.1584 20.84 21.1484 20.67 21.1484C17.26 21.1484 14.5 23.9084 14.5 27.3284C14.5 30.7384 17.26 33.4984 20.67 33.4984C24.08 33.4984 26.85 30.7384 26.85 27.3284C26.85 27.1584 26.84 27.0084 26.83 26.8484ZM21.83 30.3284H21.17V30.7084C21.17 31.1184 20.83 31.4584 20.42 31.4584C20.01 31.4584 19.67 31.1184 19.67 30.7084V30.3284H18.62C18.21 30.3284 17.87 29.9884 17.87 29.5784V27.3284V25.0784C17.87 24.6684 18.21 24.3284 18.62 24.3284H19.67V23.9484C19.67 23.5384 20.01 23.1984 20.42 23.1984C20.83 23.1984 21.17 23.5384 21.17 23.9484V24.3284H21.43C22.43 24.3284 23.31 25.2084 23.31 26.2084C23.31 26.4984 23.24 26.7684 23.12 27.0184C23.58 27.3584 23.87 27.8784 23.87 28.4584C23.87 29.4884 22.96 30.3284 21.83 30.3284Z" fill="white"/>
<path fill-rule="evenodd" clip-rule="evenodd" d="M31.8623 15.6562C32.622 16.4159 33.1684 17.3622 33.4465 18.4C33.7246 19.4379 33.7246 20.5306 33.4465 21.5684C33.1684 22.6062 32.622 23.5526 31.8623 24.3123C31.1026 25.072 30.1562 25.6184 29.1184 25.8965C28.7324 25.9999 28.3356 25.7708 28.2321 25.3848C28.1287 24.9987 28.3578 24.6019 28.7438 24.4984C29.5362 24.2861 30.2588 23.8689 30.8389 23.2889C31.419 22.7088 31.8361 21.9862 32.0485 21.1938C32.2608 20.4014 32.2608 19.5671 32.0485 18.7746C31.8361 17.9822 31.419 17.2597 30.8389 16.6796C30.2588 16.0995 29.5362 15.6823 28.7438 15.47C27.9514 15.2577 27.1171 15.2577 26.3247 15.47C25.5322 15.6823 24.8097 16.0995 24.2296 16.6796C23.6495 17.2597 23.2323 17.9822 23.02 18.7746C22.9166 19.1607 22.5198 19.3898 22.1337 19.2864C21.7476 19.1829 21.5185 18.7861 21.622 18.4C21.9001 17.3622 22.4464 16.4159 23.2062 15.6562C23.9659 14.8964 24.9122 14.3501 25.9501 14.072C26.9879 13.7939 28.0806 13.7939 29.1184 14.072C30.1562 14.3501 31.1026 14.8964 31.8623 15.6562Z" fill="white"/>
</g>
<defs>
<clipPath id="clip0_2611_16022">
<rect width="24" height="24" fill="white" transform="translate(12 12)"/>
</clipPath>
</defs>
</svg>
