<svg width="56" height="56" viewBox="0 0 56 56" fill="none" xmlns="http://www.w3.org/2000/svg">
<rect width="56" height="56" rx="28" fill="white"/>
<path d="M22.1028 17.6285C22.8307 17.8238 23.5586 17.954 24.2865 18.1493C25.0144 18.3446 25.7423 18.4748 26.4702 18.6701C26.6687 18.7352 26.7349 18.6701 26.8011 18.4748C27.0658 17.3681 27.3305 16.3264 27.5951 15.2197C27.6613 15.0244 27.7275 14.9593 27.926 15.0244C28.5878 15.2197 29.1833 15.3499 29.845 15.4801C30.0436 15.5452 30.0436 15.6103 29.9774 15.7405C29.7127 16.7822 29.448 17.8889 29.1833 18.9305C29.1833 18.9956 29.1833 19.0607 29.1171 19.1909C29.6465 19.3211 30.2421 19.4513 30.7715 19.5815C30.8376 19.5815 30.9038 19.4513 30.97 19.3862C31.1685 18.5399 31.367 17.7587 31.6317 16.9124C31.6979 16.652 31.7641 16.3915 31.8302 16.1311C31.8302 16.0009 31.8964 15.9358 32.0288 16.0009C32.6905 16.1962 33.3522 16.3264 34.0801 16.5218C34.1463 16.5218 34.1463 16.5869 34.2125 16.5869C34.014 17.4332 33.8155 18.2144 33.6169 18.9956C33.5508 19.3211 33.4846 19.6466 33.3522 19.9721C33.2861 20.1674 33.3522 20.2326 33.5508 20.2977C34.2787 20.6232 35.0066 20.9487 35.7345 21.2742C36.3962 21.6648 36.9918 22.1856 37.455 22.8366C38.0506 23.8131 38.1167 24.8548 37.852 25.8964C37.6535 26.6125 37.3888 27.2635 36.8594 27.7844C36.4624 28.175 35.933 28.4354 35.4036 28.6307C35.3374 28.6307 35.2713 28.6958 35.1389 28.6958C35.4036 28.8911 35.6683 29.0213 35.933 29.2166C36.7271 29.8025 37.2565 30.5186 37.5212 31.43C37.6535 32.1462 37.5873 32.9274 37.3888 33.6435C37.1241 34.5549 36.7933 35.3362 36.1977 36.0523C35.4698 36.8986 34.5434 37.3543 33.4846 37.4845C32.0949 37.6798 30.7715 37.5496 29.448 37.3543C29.2495 37.2892 29.1171 37.3543 29.051 37.5496C28.7863 38.5912 28.5216 39.698 28.2569 40.7396C28.1907 41 28.1907 41.0651 27.8598 40.9349C27.2643 40.8047 26.6025 40.6094 26.007 40.4792C25.8085 40.4141 25.8085 40.349 25.8746 40.2188C26.1393 39.112 26.404 38.0053 26.7349 36.9637C26.7349 36.8335 26.8011 36.7684 26.6687 36.7033C26.1393 36.5731 25.6099 36.4429 25.0144 36.3127C24.882 36.8986 24.6835 37.4845 24.5512 38.0704C24.4188 38.6563 24.2203 39.2423 24.088 39.8282C24.0218 39.9584 24.0218 40.0235 23.8233 39.9584C23.1615 39.7631 22.4998 39.6329 21.8381 39.5027C21.6395 39.4376 21.6395 39.3725 21.7057 39.2423C21.9704 38.1355 22.2351 37.0288 22.566 35.9872C22.566 35.9221 22.6321 35.857 22.6321 35.7268C21.1102 35.3361 19.5882 34.9455 18 34.5549C18.1323 34.2945 18.1985 34.0992 18.3309 33.8388C18.5956 33.2529 18.8603 32.667 19.0588 32.1462C19.1249 31.9509 19.1911 31.9509 19.3896 31.9509C19.8529 32.0811 20.3822 32.2113 20.8455 32.2764C21.3748 32.4066 21.7719 32.1462 21.8381 31.6905C22.6983 28.3703 23.5586 25.0501 24.3527 21.6648C24.485 21.144 24.1541 20.5581 23.5586 20.3628C22.963 20.1674 22.3674 20.0372 21.8381 19.907C21.7057 19.907 21.6395 19.8419 21.7057 19.7117C21.9042 18.9956 22.1028 18.2144 22.3013 17.4983C22.0366 17.6936 22.0366 17.6936 22.1028 17.6285ZM25.4776 33.7086C25.5438 33.7086 25.6099 33.7737 25.6099 33.7737C26.6687 34.0341 27.7937 34.3596 28.9186 34.4247C29.7127 34.4898 30.4406 34.4898 31.1685 34.2294C32.4258 33.8388 32.9552 32.2113 32.2273 31.1696C31.8964 30.6488 31.367 30.3233 30.8376 29.9978C29.6465 29.3468 28.2569 29.0864 26.9334 28.826C26.7349 28.7609 26.7349 28.826 26.6687 29.0213C26.5364 29.6723 26.3379 30.2582 26.2055 30.9092C25.9408 31.8207 25.7423 32.7321 25.4776 33.7086ZM31.0362 27.0682C31.1685 27.0682 31.4994 27.0031 31.7641 26.938C33.0214 26.6776 33.6831 25.2454 33.0214 24.1387C32.6905 23.5527 32.0949 23.1621 31.4994 22.9017C30.573 22.5111 29.6465 22.3158 28.6539 22.0554C28.4554 21.9903 28.3892 22.0554 28.3231 22.2507C27.9922 23.6178 27.6613 24.9199 27.2643 26.287C27.1981 26.4172 27.2643 26.4823 27.3966 26.5474C27.6613 26.6125 27.8598 26.6776 28.1245 26.7427C29.1171 26.8729 29.9774 27.0682 31.0362 27.0682Z" fill="#D23403"/>
</svg>
