<svg width="24" height="24" viewBox="0 0 24 24" fill="none" xmlns="http://www.w3.org/2000/svg">
<g id="Icon">
<path id="Vector" d="M9.5 13.7483C9.5 14.7183 10.25 15.4983 11.17 15.4983H13.05C13.85 15.4983 14.5 14.8183 14.5 13.9683C14.5 13.0583 14.1 12.7283 13.51 12.5183L10.5 11.4683C9.91 11.2583 9.51001 10.9383 9.51001 10.0183C9.51001 9.17828 10.16 8.48828 10.96 8.48828H12.84C13.76 8.48828 14.51 9.26828 14.51 10.2383" stroke="white" stroke-width="1.5" stroke-linecap="round" stroke-linejoin="round"/>
<path id="Vector_2" d="M12 7.5V16.5" stroke="white" stroke-width="1.5" stroke-linecap="round" stroke-linejoin="round"/>
<path id="Vector_3" d="M17 3V7H21" stroke="white" stroke-width="1.5" stroke-linecap="round" stroke-linejoin="round"/>
<path id="Vector_4" d="M22 2L17 7" stroke="white" stroke-width="1.5" stroke-linecap="round" stroke-linejoin="round"/>
<path id="Ellipse 1195" d="M12 2C10.0222 2 8.08879 2.58649 6.4443 3.6853C4.79981 4.78412 3.51808 6.3459 2.7612 8.17317C2.00433 10.0004 1.80629 12.0111 2.19215 13.9509C2.578 15.8907 3.53041 17.6725 4.92893 19.0711C6.32746 20.4696 8.10929 21.422 10.0491 21.8079C11.9889 22.1937 13.9996 21.9957 15.8268 21.2388C17.6541 20.4819 19.2159 19.2002 20.3147 17.5557C21.4135 15.9112 22 13.9778 22 12" stroke="white" stroke-width="1.5" stroke-linecap="round"/>
</g>
</svg>
