<svg width="56" height="56" viewBox="0 0 56 56" fill="none" xmlns="http://www.w3.org/2000/svg">
<rect width="56" height="56" rx="28" fill="white"/>
<path fill-rule="evenodd" clip-rule="evenodd" d="M18.6667 17C16.0893 17 14 19.0595 14 21.6V35.4C14 37.9405 16.0893 40 18.6667 40H37.3333C39.9107 40 42 37.9405 42 35.4V21.6C42 19.0595 39.9107 17 37.3333 17H18.6667ZM39.6667 26.8154V26.2C39.6667 24.9297 38.622 23.9 37.3333 23.9H18.6667C17.378 23.9 16.3333 24.9297 16.3333 26.2V26.8154C17.0197 26.424 17.8167 26.2 18.6667 26.2H23.3333C24.6779 26.2 25.499 27.2624 25.7942 28.1029C26.111 29.005 26.9806 29.65 28 29.65C29.0194 29.65 29.889 29.005 30.2058 28.1029C30.501 27.2624 31.3221 26.2 32.6667 26.2H37.3333C38.1833 26.2 38.9803 26.424 39.6667 26.8154ZM39.6667 22.2154V21.6C39.6667 20.3297 38.622 19.3 37.3333 19.3H18.6667C17.378 19.3 16.3333 20.3297 16.3333 21.6V22.2154C17.0197 21.824 17.8167 21.6 18.6667 21.6H37.3333C38.1833 21.6 38.9803 21.824 39.6667 22.2154Z" fill="#D23403"/>
</svg>
