<svg width="24" height="24" viewBox="0 0 24 24" fill="none" xmlns="http://www.w3.org/2000/svg">
<path fill-rule="evenodd" clip-rule="evenodd" d="M6.21899 15.577C4.6741 14.268 3.57148 12.773 3.05314 12C3.57047 11.227 4.6741 9.732 6.21899 8.423C7.8146 7.072 9.78451 6 11.9999 6C14.2153 6 16.1852 7.072 17.7808 8.423C19.3257 9.732 20.4283 11.227 20.9467 12C20.4293 12.773 19.3257 14.268 17.7808 15.577C16.1852 16.928 14.2153 18 11.9999 18C9.78451 18 7.8146 16.928 6.21899 15.577ZM11.9999 4C9.10691 4 6.68155 5.395 4.89727 6.906C3.1069 8.423 1.86429 10.138 1.31247 10.97C1.10862 11.2759 1 11.634 1 12C1 12.366 1.10862 12.7241 1.31247 13.03C1.86429 13.862 3.1069 15.577 4.89727 17.094C6.68256 18.605 9.10691 20 11.9999 20C14.8929 20 17.3183 18.605 19.1025 17.094C20.8929 15.577 22.1355 13.862 22.6873 13.03C23.1042 12.402 23.1042 11.599 22.6873 10.97C22.1355 10.138 20.8929 8.423 19.1025 6.906C17.3172 5.395 14.8929 4 11.9999 4ZM9.97115 12C9.97115 11.4696 10.1849 10.9609 10.5654 10.5858C10.9458 10.2107 11.4618 10 11.9999 10C12.538 10 13.054 10.2107 13.4344 10.5858C13.8149 10.9609 14.0286 11.4696 14.0286 12C14.0286 12.5304 13.8149 13.0391 13.4344 13.4142C13.054 13.7893 12.538 14 11.9999 14C11.4618 14 10.9458 13.7893 10.5654 13.4142C10.1849 13.0391 9.97115 12.5304 9.97115 12ZM11.9999 8C10.9238 8 9.89175 8.42143 9.13082 9.17157C8.36989 9.92172 7.94241 10.9391 7.94241 12C7.94241 13.0609 8.36989 14.0783 9.13082 14.8284C9.89175 15.5786 10.9238 16 11.9999 16C13.076 16 14.108 15.5786 14.869 14.8284C15.6299 14.0783 16.0574 13.0609 16.0574 12C16.0574 10.9391 15.6299 9.92172 14.869 9.17157C14.108 8.42143 13.076 8 11.9999 8Z" fill="white"/>
</svg>
