<svg width="31" height="32" viewBox="0 0 31 32" fill="none" xmlns="http://www.w3.org/2000/svg">
<g id="Cancel Icon">
<path id="Vector" d="M15.4997 2.66651C12.945 2.66651 10.4477 3.4485 8.32357 4.91358C6.19943 6.37867 4.54387 8.46105 3.56624 10.8974C2.58861 13.3337 2.33281 16.0146 2.8312 18.601C3.3296 21.1875 4.55979 23.5632 6.36622 25.4279C8.17265 27.2926 10.4742 28.5625 12.9798 29.077C15.4854 29.5915 18.0825 29.3274 20.4427 28.3182C22.8029 27.3091 24.8202 25.6001 26.2395 23.4074C27.6588 21.2148 28.4164 18.6369 28.4164 15.9998C28.4164 13.3628 27.6588 10.7849 26.2395 8.59224C24.8202 6.39958 22.8029 4.69062 20.4427 3.68145C18.0825 2.67228 15.4854 2.40824 12.9798 2.92271C10.4742 3.43718 8.17265 4.70705 6.36622 6.57175C4.55979 8.43645 3.3296 10.8122 2.8312 13.3986C2.33281 15.9851 2.5886 18.6659 3.56624 21.1023C4.54387 23.5386 6.19943 25.621 8.32357 27.0861C10.4477 28.5512 12.945 29.3332 15.4997 29.3332" stroke="white" stroke-width="1.5" stroke-linecap="round"/>
<g id="Group 48099023">
<path id="Vector_2" d="M21.0919 21.547L10.7181 11.1732" stroke="white" stroke-width="1.5" stroke-linecap="round" stroke-linejoin="round"/>
<path id="Vector_3" d="M20.872 11.0002L10.0002 21.872" stroke="white" stroke-width="1.5" stroke-linecap="round" stroke-linejoin="round"/>
</g>
<path id="Vector_4" d="M15.4997 2.66651C12.945 2.66651 10.4477 3.4485 8.32357 4.91358C6.19943 6.37867 4.54387 8.46105 3.56624 10.8974C2.58861 13.3337 2.33281 16.0146 2.8312 18.601C3.3296 21.1875 4.55979 23.5632 6.36622 25.4279C8.17265 27.2926 10.4742 28.5625 12.9798 29.077C15.4854 29.5915 18.0825 29.3274 20.4427 28.3182C22.8029 27.3091 24.8202 25.6001 26.2395 23.4074C27.6588 21.2148 28.4164 18.6369 28.4164 15.9998C28.4164 13.3628 27.6588 10.7849 26.2395 8.59224C24.8202 6.39958 22.8029 4.69062 20.4427 3.68145C18.0825 2.67228 15.4854 2.40824 12.9798 2.92271C10.4742 3.43718 8.17265 4.70705 6.36622 6.57175C4.55979 8.43645 3.3296 10.8122 2.8312 13.3986C2.33281 15.9851 2.5886 18.6659 3.56624 21.1023C4.54387 23.5386 6.19943 25.621 8.32357 27.0861C10.4477 28.5512 12.945 29.3332 15.4997 29.3332" stroke="white" stroke-width="1.5" stroke-linecap="round"/>
</g>
</svg>
