<svg width="31" height="32" viewBox="0 0 31 32" fill="none" xmlns="http://www.w3.org/2000/svg">
<g id="Cancel Icon">
<path id="Vector" d="M15.4997 2.66651C12.945 2.66651 10.4477 3.4485 8.32357 4.91358C6.19943 6.37867 4.54387 8.46105 3.56624 10.8974C2.58861 13.3337 2.33281 16.0146 2.8312 18.601C3.3296 21.1875 4.55979 23.5632 6.36622 25.4279C8.17265 27.2926 10.4742 28.5625 12.9798 29.077C15.4854 29.5915 18.0825 29.3274 20.4427 28.3182C22.8029 27.3091 24.8202 25.6001 26.2395 23.4074C27.6588 21.2148 28.4164 18.6369 28.4164 15.9998C28.4164 13.3628 27.6588 10.7849 26.2395 8.59224C24.8202 6.39958 22.8029 4.69062 20.4427 3.68145C18.0825 2.67228 15.4854 2.40824 12.9798 2.92271C10.4742 3.43718 8.17265 4.70705 6.36622 6.57175C4.55979 8.43645 3.3296 10.8122 2.8312 13.3986C2.33281 15.9851 2.5886 18.6659 3.56624 21.1023C4.54387 23.5386 6.19943 25.621 8.32357 27.0861C10.4477 28.5512 12.945 29.3332 15.4997 29.3332" stroke="white" stroke-width="1.5" stroke-linecap="round"/>
<path id="Vector_2" d="M15.4997 2.66651C12.945 2.66651 10.4477 3.4485 8.32357 4.91358C6.19943 6.37867 4.54387 8.46105 3.56624 10.8974C2.58861 13.3337 2.33281 16.0146 2.8312 18.601C3.3296 21.1875 4.55979 23.5632 6.36622 25.4279C8.17265 27.2926 10.4742 28.5625 12.9798 29.077C15.4854 29.5915 18.0825 29.3274 20.4427 28.3182C22.8029 27.3091 24.8202 25.6001 26.2395 23.4074C27.6588 21.2148 28.4164 18.6369 28.4164 15.9998C28.4164 13.3628 27.6588 10.7849 26.2395 8.59224C24.8202 6.39958 22.8029 4.69062 20.4427 3.68145C18.0825 2.67228 15.4854 2.40824 12.9798 2.92271C10.4742 3.43718 8.17265 4.70705 6.36622 6.57175C4.55979 8.43645 3.3296 10.8122 2.8312 13.3986C2.33281 15.9851 2.5886 18.6659 3.56624 21.1023C4.54387 23.5386 6.19943 25.621 8.32357 27.0861C10.4477 28.5512 12.945 29.3332 15.4997 29.3332" stroke="white" stroke-width="1.5" stroke-linecap="round"/>
<path id="Vector_3" d="M15.5 8C14.0166 8 12.5666 8.4692 11.3332 9.34825C10.0999 10.2273 9.13856 11.4767 8.57091 12.9385C8.00325 14.4003 7.85473 16.0089 8.14411 17.5607C8.4335 19.1126 9.14781 20.538 10.1967 21.6569C11.2456 22.7757 12.582 23.5376 14.0368 23.8463C15.4917 24.155 16.9997 23.9965 18.3701 23.391C19.7406 22.7855 20.9119 21.7602 21.736 20.4446C22.5601 19.129 23 17.5822 23 16C23 14.4178 22.5601 12.871 21.736 11.5554C20.9119 10.2398 19.7406 9.21447 18.3701 8.60897C16.9997 8.00347 15.4917 7.84504 14.0368 8.15372C12.582 8.4624 11.2456 9.22433 10.1967 10.3431C9.14781 11.462 8.4335 12.8874 8.14411 14.4393C7.85472 15.9911 8.00325 17.5997 8.57091 19.0615C9.13856 20.5233 10.0999 21.7727 11.3332 22.6518C12.5666 23.5308 14.0166 24 15.5 24" stroke="white" stroke-width="1.5" stroke-linecap="round"/>
</g>
</svg>
